<svg xmlns="http://www.w3.org/2000/svg" width="406.56" height="401.28" viewBox="0 0 304.92 300.96"><clipPath id="a"><path transform="matrix(1 0 0 -1 -255.42 438.75)" d="M0 0h792v612H0z"/></clipPath><g clip-path="url(#a)"><clipPath id="b"><path transform="matrix(1 0 0 -1 -255.42 438.75)" d="M0 9h792v594H0z"/></clipPath><g clip-path="url(#b)"><path d="M-255.42-164.25h792v594h-792z" fill="#fff"/><clipPath id="c"><path transform="matrix(1 0 0 -1 -255.42 438.75)" d="M350.04 339.957h57.065v57.066H350.04z"/></clipPath><g opacity=".299" clip-path="url(#c)"><clipPath id="d"><path transform="matrix(1 0 0 -1 -255.42 438.75)" d="M347 337h63v63h-63z"/></clipPath><g clip-path="url(#d)"><clipPath id="e"><path transform="matrix(1 0 0 -1 -255.42 438.75)" d="M350 339h58v59h-58z"/></clipPath><g clip-path="url(#e)"><path d="M96.553 96.86h53.199v-53.2h-53.2z" fill="#929292" fill-opacity=".506"/><path stroke-width="2.32032" fill="none" stroke="#5e5e5e" d="M149.752 43.66H96.553v53.2h53.199z"/></g></g></g><clipPath id="f"><path transform="matrix(1 0 0 -1 -255.42 438.75)" d="M296.84 286.758h57.067v57.066H296.84z"/></clipPath><g opacity=".299" clip-path="url(#f)"><clipPath id="g"><path transform="matrix(1 0 0 -1 -255.42 438.75)" d="M294 284h63v63h-63z"/></clipPath><g clip-path="url(#g)"><clipPath id="h"><path transform="matrix(1 0 0 -1 -255.42 438.75)" d="M296 286h58v58h-58z"/></clipPath><g clip-path="url(#h)"><path d="M43.354 150.058h53.199V96.86H43.354z" fill="#929292" fill-opacity=".506"/><path stroke-width="2.32032" fill="none" stroke="#5e5e5e" d="M96.553 96.86H43.354v53.198h53.199z"/></g></g></g><clipPath id="i"><path transform="matrix(1 0 0 -1 -255.42 438.75)" d="M296.708 393.111h57.208V421.2h-57.208z"/></clipPath><g opacity=".299" clip-path="url(#i)"><clipPath id="j"><path transform="matrix(1 0 0 -1 -255.42 438.75)" d="M294 390h63v34h-63z"/></clipPath><g clip-path="url(#j)"><clipPath id="k"><path transform="matrix(1 0 0 -1 -255.42 438.75)" d="M296 393h58v29h-58z"/></clipPath><g clip-path="url(#k)"><path d="m96.457 43.702-53.125-.116c1.254-13.698 12.85-24.17 26.699-24.1 13.787.068 25.247 10.572 26.426 24.216zm0 0" fill="#929292" fill-opacity=".506"/><path stroke-width="2.32032" fill="none" stroke="#5e5e5e" d="m96.457 43.702-53.125-.116c1.254-13.698 12.851-24.17 26.699-24.1 13.787.068 25.247 10.572 26.426 24.216zm0 0"/></g></g></g><clipPath id="l"><path transform="matrix(1 0 0 -1 -255.42 438.75)" d="M272.637 286.72v57.209h28.087V286.72z"/></clipPath><g clip-path="url(#l)"><clipPath id="m"><path transform="matrix(1 0 0 -1 -255.42 438.75)" d="M0 9h792v594H0z"/></clipPath><g clip-path="url(#m)"><path stroke-width="2.32032" fill="none" stroke="#5e5e5e" stroke-opacity=".299" d="m43.368 149.99-.117-53.124c-13.697 1.253-24.17 12.85-24.1 26.698.069 13.787 10.572 25.247 24.217 26.426zm0 0"/></g></g><clipPath id="n"><path transform="matrix(1 0 0 -1 -255.42 438.75)" d="M296.867 342.086v52.809h3.867v-52.81z"/></clipPath><g clip-path="url(#n)"><clipPath id="o"><path transform="matrix(1 0 0 -1 -255.42 438.75)" d="M0 9h792v594H0z"/></clipPath><g opacity=".299" clip-path="url(#o)"><clipPath id="p"><path transform="matrix(1 0 0 -1 -255.42 438.75)" d="M294 338h10v61h-10z"/></clipPath><g clip-path="url(#p)"><clipPath id="q"><path transform="matrix(1 0 0 -1 -255.42 438.75)" d="M296 342h5v53h-5z"/></clipPath><g clip-path="url(#q)"><path stroke-width="2.32032" fill="none" stroke="#5e5e5e" d="M43.38 95.89V44.63"/></g></g></g></g><clipPath id="r"><path transform="matrix(1 0 0 -1 -255.42 438.75)" d="M510.772 288.887v52.809h3.868v-52.81z"/></clipPath><g clip-path="url(#r)"><clipPath id="s"><path transform="matrix(1 0 0 -1 -255.42 438.75)" d="M0 9h792v594H0z"/></clipPath><g opacity=".299" clip-path="url(#s)"><clipPath id="t"><path transform="matrix(1 0 0 -1 -255.42 438.75)" d="M508 285h10v61h-10z"/></clipPath><g clip-path="url(#t)"><clipPath id="u"><path transform="matrix(1 0 0 -1 -255.42 438.75)" d="M510 288h5v54h-5z"/></clipPath><g clip-path="url(#u)"><path stroke-width="2.32032" fill="none" stroke="#5e5e5e" d="M257.286 149.09V97.828"/></g></g></g></g><clipPath id="v"><path transform="matrix(1 0 0 -1 -255.42 438.75)" d="M404.989 393.111h57.208V421.2h-57.208z"/></clipPath><g opacity=".299" clip-path="url(#v)"><clipPath id="w"><path transform="matrix(1 0 0 -1 -255.42 438.75)" d="M402 390h63v34h-63z"/></clipPath><g clip-path="url(#w)"><clipPath id="x"><path transform="matrix(1 0 0 -1 -255.42 438.75)" d="M404 393h59v29h-59z"/></clipPath><g clip-path="url(#x)"><path d="m204.738 43.702-53.124-.116c1.253-13.698 12.85-24.17 26.698-24.1 13.787.068 25.247 10.572 26.426 24.216zm0 0" fill="#929292" fill-opacity=".506"/><path stroke-width="2.32032" fill="none" stroke="#5e5e5e" d="m204.738 43.702-53.124-.116c1.253-13.698 12.85-24.17 26.698-24.1 13.787.068 25.247 10.572 26.426 24.216zm0 0"/></g></g></g><clipPath id="y"><path transform="matrix(1 0 0 -1 -255.42 438.75)" d="M457.547 339.957h57.066v57.066h-57.066z"/></clipPath><g opacity=".299" clip-path="url(#y)"><clipPath id="z"><path transform="matrix(1 0 0 -1 -255.42 438.75)" d="M454 337h64v63h-64z"/></clipPath><g clip-path="url(#z)"><clipPath id="A"><path transform="matrix(1 0 0 -1 -255.42 438.75)" d="M457 339h58v59h-58z"/></clipPath><g clip-path="url(#A)"><path d="M204.06 96.86h53.2v-53.2h-53.2z" fill="#929292" fill-opacity=".506"/><path stroke-width="2.32032" fill="none" stroke="#5e5e5e" d="M257.26 43.66h-53.2v53.2h53.2z"/></g></g></g><clipPath id="B"><path transform="matrix(1 0 0 -1 -255.42 438.75)" d="M538.7 339.92v57.208h-28.088V339.92z"/></clipPath><g clip-path="url(#B)"><clipPath id="C"><path transform="matrix(1 0 0 -1 -255.42 438.75)" d="M0 9h792v594H0z"/></clipPath><g clip-path="url(#C)"><path stroke-width="2.32032" fill="none" stroke="#5e5e5e" stroke-opacity=".299" d="m257.128 96.792.117-53.125c13.697 1.253 24.17 12.85 24.1 26.698-.069 13.787-10.572 25.247-24.217 26.427zm0 0"/></g></g><clipPath id="D"><path transform="matrix(1 0 0 -1 -255.42 438.75)" d="M403.575 286.758h57.066v57.066h-57.066z"/></clipPath><g opacity=".299" clip-path="url(#D)"><clipPath id="E"><path transform="matrix(1 0 0 -1 -255.42 438.75)" d="M400 284h64v63h-64z"/></clipPath><g clip-path="url(#E)"><clipPath id="F"><path transform="matrix(1 0 0 -1 -255.42 438.75)" d="M403 286h58v58h-58z"/></clipPath><g clip-path="url(#F)"><path d="M150.089 150.058h53.198V96.86H150.09z" fill="#929292" fill-opacity=".506"/><path stroke-width="2.32032" fill="none" stroke="#5e5e5e" d="M203.287 96.86h-53.199v53.198h53.2z"/></g></g></g><clipPath id="G"><path transform="matrix(1 0 0 -1 -255.42 438.75)" d="M350.04 233.223h57.065v57.066H350.04z"/></clipPath><g opacity=".299" clip-path="url(#G)"><clipPath id="H"><path transform="matrix(1 0 0 -1 -255.42 438.75)" d="M347 230h63v63h-63z"/></clipPath><g clip-path="url(#H)"><clipPath id="I"><path transform="matrix(1 0 0 -1 -255.42 438.75)" d="M350 233h58v58h-58z"/></clipPath><g clip-path="url(#I)"><path d="M96.553 203.594h53.199v-53.2h-53.2z" fill="#929292" fill-opacity=".506"/><path stroke-width="2.32032" fill="none" stroke="#5e5e5e" d="M149.752 150.395H96.553v53.199h53.199z"/></g></g></g><clipPath id="J"><path transform="matrix(1 0 0 -1 -255.42 438.75)" d="M296.84 180.024h57.067v57.066H296.84z"/></clipPath><g opacity=".299" clip-path="url(#J)"><clipPath id="K"><path transform="matrix(1 0 0 -1 -255.42 438.75)" d="M294 177h63v63h-63z"/></clipPath><g clip-path="url(#K)"><clipPath id="L"><path transform="matrix(1 0 0 -1 -255.42 438.75)" d="M296 180h58v58h-58z"/></clipPath><g clip-path="url(#L)"><path d="M43.354 256.793h53.199v-53.2H43.354z" fill="#929292" fill-opacity=".506"/><path stroke-width="2.32032" fill="none" stroke="#5e5e5e" d="M96.553 203.594H43.354v53.199h53.199z"/></g></g></g><clipPath id="M"><path transform="matrix(1 0 0 -1 -255.42 438.75)" d="M407.114 155.91h-57.207v28.087h57.207z"/></clipPath><g clip-path="url(#M)"><clipPath id="N"><path transform="matrix(1 0 0 -1 -255.42 438.75)" d="M0 9h792v594H0z"/></clipPath><g opacity=".299" clip-path="url(#N)"><clipPath id="O"><path transform="matrix(1 0 0 -1 -255.42 438.75)" d="M347 153h63v34h-63z"/></clipPath><g clip-path="url(#O)"><clipPath id="P"><path transform="matrix(1 0 0 -1 -255.42 438.75)" d="M349 155h59v29h-59z"/></clipPath><g clip-path="url(#P)"><path d="m149.656 256.69-53.125.116c1.254 13.698 12.85 24.17 26.698 24.1 13.788-.069 25.247-10.572 26.427-24.216zm0 0" fill="#929292" fill-opacity=".506"/><path stroke-width="2.32032" fill="none" stroke="#5e5e5e" d="m149.656 256.69-53.125.116c1.254 13.698 12.85 24.17 26.698 24.1 13.788-.069 25.247-10.572 26.427-24.217zm0 0"/></g></g></g></g><clipPath id="Q"><path transform="matrix(1 0 0 -1 -255.42 438.75)" d="M272.637 179.987v57.207h28.087v-57.207z"/></clipPath><g clip-path="url(#Q)"><clipPath id="R"><path transform="matrix(1 0 0 -1 -255.42 438.75)" d="M0 9h792v594H0z"/></clipPath><g clip-path="url(#R)"><path stroke-width="2.32032" fill="none" stroke="#5e5e5e" stroke-opacity=".299" d="M43.368 256.725 43.25 203.6c-13.697 1.254-24.17 12.85-24.1 26.698.069 13.788 10.572 25.247 24.217 26.427zm0 0"/></g></g><clipPath id="S"><path transform="matrix(1 0 0 -1 -255.42 438.75)" d="M510.772 182.152v52.81h3.868v-52.81z"/></clipPath><g clip-path="url(#S)"><clipPath id="T"><path transform="matrix(1 0 0 -1 -255.42 438.75)" d="M0 9h792v594H0z"/></clipPath><g opacity=".299" clip-path="url(#T)"><clipPath id="U"><path transform="matrix(1 0 0 -1 -255.42 438.75)" d="M508 178h10v61h-10z"/></clipPath><g clip-path="url(#U)"><clipPath id="V"><path transform="matrix(1 0 0 -1 -255.42 438.75)" d="M510 182h5v53h-5z"/></clipPath><g clip-path="url(#V)"><path stroke-width="2.32032" fill="none" stroke="#5e5e5e" d="M257.286 255.824v-51.262"/></g></g></g></g><clipPath id="W"><path transform="matrix(1 0 0 -1 -255.42 438.75)" d="M457.547 233.223h57.066v57.066h-57.066z"/></clipPath><g opacity=".299" clip-path="url(#W)"><clipPath id="X"><path transform="matrix(1 0 0 -1 -255.42 438.75)" d="M454 230h64v63h-64z"/></clipPath><g clip-path="url(#X)"><clipPath id="Y"><path transform="matrix(1 0 0 -1 -255.42 438.75)" d="M457 233h58v58h-58z"/></clipPath><g clip-path="url(#Y)"><path d="M204.06 203.594h53.2v-53.2h-53.2z" fill="#929292" fill-opacity=".506"/><path stroke-width="2.32032" fill="none" stroke="#5e5e5e" d="M257.26 150.395h-53.2v53.199h53.2z"/></g></g></g><clipPath id="Z"><path transform="matrix(1 0 0 -1 -255.42 438.75)" d="M538.7 233.185v57.208h-28.088v-57.208z"/></clipPath><g clip-path="url(#Z)"><clipPath id="aa"><path transform="matrix(1 0 0 -1 -255.42 438.75)" d="M0 9h792v594H0z"/></clipPath><g clip-path="url(#aa)"><path stroke-width="2.32032" fill="none" stroke="#5e5e5e" stroke-opacity=".299" d="m257.128 203.526.117-53.125c13.697 1.254 24.17 12.85 24.1 26.699-.069 13.787-10.572 25.247-24.217 26.426zm0 0"/></g></g><clipPath id="ab"><path transform="matrix(1 0 0 -1 -255.42 438.75)" d="M403.575 180.024h57.066v57.066h-57.066z"/></clipPath><g opacity=".299" clip-path="url(#ab)"><clipPath id="ac"><path transform="matrix(1 0 0 -1 -255.42 438.75)" d="M400 177h64v63h-64z"/></clipPath><g clip-path="url(#ac)"><clipPath id="ad"><path transform="matrix(1 0 0 -1 -255.42 438.75)" d="M403 180h58v58h-58z"/></clipPath><g clip-path="url(#ad)"><path d="M150.089 256.793h53.198v-53.2H150.09z" fill="#929292" fill-opacity=".506"/><path stroke-width="2.32032" fill="none" stroke="#5e5e5e" d="M203.287 203.594h-53.199v53.199h53.2z"/></g></g></g><clipPath id="ae"><path transform="matrix(1 0 0 -1 -255.42 438.75)" d="M296.867 235.351v52.81h3.867v-52.81z"/></clipPath><g clip-path="url(#ae)"><clipPath id="af"><path transform="matrix(1 0 0 -1 -255.42 438.75)" d="M0 9h792v594H0z"/></clipPath><g opacity=".299" clip-path="url(#af)"><clipPath id="ag"><path transform="matrix(1 0 0 -1 -255.42 438.75)" d="M294 231h10v62h-10z"/></clipPath><g clip-path="url(#ag)"><clipPath id="ah"><path transform="matrix(1 0 0 -1 -255.42 438.75)" d="M296 235h5v54h-5z"/></clipPath><g clip-path="url(#ah)"><path stroke-width="2.32032" fill="none" stroke="#5e5e5e" d="M43.38 202.625v-51.262"/></g></g></g></g><clipPath id="ai"><path transform="matrix(1 0 0 -1 -255.42 438.75)" d="M515.396 155.91h-57.208v28.087h57.208z"/></clipPath><g clip-path="url(#ai)"><clipPath id="aj"><path transform="matrix(1 0 0 -1 -255.42 438.75)" d="M0 9h792v594H0z"/></clipPath><g opacity=".299" clip-path="url(#aj)"><clipPath id="ak"><path transform="matrix(1 0 0 -1 -255.42 438.75)" d="M455 153h63v34h-63z"/></clipPath><g clip-path="url(#ak)"><clipPath id="al"><path transform="matrix(1 0 0 -1 -255.42 438.75)" d="M458 155h58v29h-58z"/></clipPath><g clip-path="url(#al)"><path d="m257.937 256.69-53.125.116c1.254 13.698 12.851 24.17 26.699 24.1 13.787-.069 25.247-10.572 26.426-24.216zm0 0" fill="#929292" fill-opacity=".506"/><path stroke-width="2.32032" fill="none" stroke="#5e5e5e" d="m257.937 256.69-53.125.116c1.254 13.698 12.851 24.17 26.699 24.1 13.787-.069 25.247-10.572 26.426-24.217zm0 0"/></g></g></g></g><clipPath id="am"><path transform="matrix(1 0 0 -1 -255.42 438.75)" d="m294.026 181.041 219.456 219.457 3.828-3.828-219.456-219.457z"/></clipPath><g clip-path="url(#am)"><clipPath id="an"><path transform="matrix(1 0 0 -1 -255.42 438.75)" d="M0 9h792v594H0z"/></clipPath><g clip-path="url(#an)"><path stroke-width="3.8672" fill="none" stroke="#017100" d="M41.067 259.076 259.429 40.713"/></g></g><clipPath id="ao"><path transform="matrix(1 0 0 -1 -255.42 438.75)" d="m348.269 181.918 188.416 188.416 3.829-3.829L352.096 178.09z"/></clipPath><g clip-path="url(#ao)"><clipPath id="ap"><path transform="matrix(1 0 0 -1 -255.42 438.75)" d="M0 9h792v594H0z"/></clipPath><g clip-path="url(#ap)"><path stroke-width="3.8672" fill="none" stroke="#017100" d="M95.31 258.2 282.633 70.877"/></g></g><clipPath id="aq"><path transform="matrix(1 0 0 -1 -255.42 438.75)" d="m375.33 154.839 134.294 134.293 3.828-3.829L379.16 151.01z"/></clipPath><g clip-path="url(#aq)"><clipPath id="ar"><path transform="matrix(1 0 0 -1 -255.42 438.75)" d="M0 9h792v594H0z"/></clipPath><g clip-path="url(#ar)"><path stroke-width="3.8672" fill="none" stroke="#017100" d="m122.372 285.279 133.199-133.2"/></g></g><clipPath id="as"><path transform="matrix(1 0 0 -1 -255.42 438.75)" d="m456.55 181.918 80.135 80.135 3.829-3.829-80.135-80.135z"/></clipPath><g clip-path="url(#as)"><clipPath id="at"><path transform="matrix(1 0 0 -1 -255.42 438.75)" d="M0 9h792v594H0z"/></clipPath><g clip-path="url(#at)"><path stroke-width="3.8672" fill="none" stroke="#017100" d="m203.591 258.2 79.041-79.042"/></g></g><clipPath id="au"><path transform="matrix(1 0 0 -1 -255.42 438.75)" d="m489.256 160.483 24.226 24.226 3.828-3.828-24.225-24.226z"/></clipPath><g clip-path="url(#au)"><clipPath id="av"><path transform="matrix(1 0 0 -1 -255.42 438.75)" d="M0 9h792v594H0z"/></clipPath><g clip-path="url(#av)"><path stroke-width="3.8672" fill="none" stroke="#017100" d="m236.297 279.634 23.132-23.132"/></g></g><clipPath id="aw"><path transform="matrix(1 0 0 -1 -255.42 438.75)" d="M274.174 215.33 459.34 400.498l3.829-3.828-185.168-185.168z"/></clipPath><g clip-path="url(#aw)"><clipPath id="ax"><path transform="matrix(1 0 0 -1 -255.42 438.75)" d="M0 9h792v594H0z"/></clipPath><g clip-path="url(#ax)"><path stroke-width="3.8672" fill="none" stroke="#017100" d="M21.215 224.787 205.289 40.713"/></g></g><clipPath id="ay"><path transform="matrix(1 0 0 -1 -255.42 438.75)" d="m292.928 287.451 136.25 136.25 3.828-3.828-136.25-136.25z"/></clipPath><g clip-path="url(#ay)"><clipPath id="az"><path transform="matrix(1 0 0 -1 -255.42 438.75)" d="M0 9h792v594H0z"/></clipPath><g clip-path="url(#az)"><path stroke-width="3.8672" fill="none" stroke="#017100" d="M39.969 152.666 175.125 17.51"/></g></g><clipPath id="aA"><path transform="matrix(1 0 0 -1 -255.42 438.75)" d="m269.7 317.591 80.916 80.916 3.829-3.828-80.916-80.916z"/></clipPath><g clip-path="url(#aA)"><clipPath id="aB"><path transform="matrix(1 0 0 -1 -255.42 438.75)" d="M0 9h792v594H0z"/></clipPath><g clip-path="url(#aB)"><path stroke-width="3.8672" fill="none" stroke="#017100" d="m16.741 122.526 79.822-79.822"/></g></g><clipPath id="aC"><path transform="matrix(1 0 0 -1 -255.42 438.75)" d="m296.928 396.381 24.226 24.226 3.828-3.828-24.226-24.226z"/></clipPath><g clip-path="url(#aC)"><clipPath id="aD"><path transform="matrix(1 0 0 -1 -255.42 438.75)" d="M0 9h792v594H0z"/></clipPath><g clip-path="url(#aD)"><path stroke-width="3.8672" fill="none" stroke="#017100" d="M43.97 43.736 67.1 20.604"/></g></g><clipPath id="aE"><path transform="matrix(1 0 0 -1 -255.42 438.75)" d="M513.741 176.274 294.285 395.731l3.828 3.828L517.57 180.103z"/></clipPath><g clip-path="url(#aE)"><clipPath id="aF"><path transform="matrix(1 0 0 -1 -255.42 438.75)" d="M0 9h792v594H0z"/></clipPath><g clip-path="url(#aF)"><path stroke-width="3.8672" fill="none" stroke="#017100" d="M259.689 260.015 41.326 41.652"/></g></g><clipPath id="aG"><path transform="matrix(1 0 0 -1 -255.42 438.75)" d="M512.865 230.518 324.45 418.934l3.828 3.828 188.416-188.416z"/></clipPath><g clip-path="url(#aG)"><clipPath id="aH"><path transform="matrix(1 0 0 -1 -255.42 438.75)" d="M0 9h792v594H0z"/></clipPath><g clip-path="url(#aH)"><path stroke-width="3.8672" fill="none" stroke="#017100" d="M258.812 205.771 71.49 18.45"/></g></g><clipPath id="aI"><path transform="matrix(1 0 0 -1 -255.42 438.75)" d="M539.944 257.58 405.651 391.871l3.828 3.829 134.294-134.293z"/></clipPath><g clip-path="url(#aI)"><clipPath id="aJ"><path transform="matrix(1 0 0 -1 -255.42 438.75)" d="M0 9h792v594H0z"/></clipPath><g clip-path="url(#aJ)"><path stroke-width="3.8672" fill="none" stroke="#017100" d="m285.892 178.71-133.2-133.2"/></g></g><clipPath id="aK"><path transform="matrix(1 0 0 -1 -255.42 438.75)" d="m512.865 338.799-80.135 80.135 3.828 3.828 80.135-80.135z"/></clipPath><g clip-path="url(#aK)"><clipPath id="aL"><path transform="matrix(1 0 0 -1 -255.42 438.75)" d="M0 9h792v594H0z"/></clipPath><g clip-path="url(#aL)"><path stroke-width="3.8672" fill="none" stroke="#017100" d="m258.812 97.49-79.04-79.041"/></g></g><clipPath id="aM"><path transform="matrix(1 0 0 -1 -255.42 438.75)" d="m534.3 371.505-24.226 24.226 3.828 3.828 24.226-24.226z"/></clipPath><g clip-path="url(#aM)"><clipPath id="aN"><path transform="matrix(1 0 0 -1 -255.42 438.75)" d="M0 9h792v594H0z"/></clipPath><g clip-path="url(#aN)"><path stroke-width="3.8672" fill="none" stroke="#017100" d="m280.247 64.784-23.132-23.132"/></g></g><clipPath id="aO"><path transform="matrix(1 0 0 -1 -255.42 438.75)" d="M479.452 156.423 294.285 341.59l3.828 3.829L483.281 160.25z"/></clipPath><g clip-path="url(#aO)"><clipPath id="aP"><path transform="matrix(1 0 0 -1 -255.42 438.75)" d="M0 9h792v594H0z"/></clipPath><g clip-path="url(#aP)"><path stroke-width="3.8672" fill="none" stroke="#017100" d="M225.4 279.866 41.326 95.793"/></g></g><clipPath id="aQ"><path transform="matrix(1 0 0 -1 -255.42 438.75)" d="m407.332 175.176-136.25 136.25 3.828 3.828 136.25-136.25z"/></clipPath><g clip-path="url(#aQ)"><clipPath id="aR"><path transform="matrix(1 0 0 -1 -255.42 438.75)" d="M0 9h792v594H0z"/></clipPath><g clip-path="url(#aR)"><path stroke-width="3.8672" fill="none" stroke="#017100" d="M153.279 261.113 18.123 125.957"/></g></g><clipPath id="aS"><path transform="matrix(1 0 0 -1 -255.42 438.75)" d="m377.192 151.949-82.118 82.118 3.828 3.828 82.118-82.118z"/></clipPath><g clip-path="url(#aS)"><clipPath id="aT"><path transform="matrix(1 0 0 -1 -255.42 438.75)" d="M0 9h792v594H0z"/></clipPath><g clip-path="url(#aT)"><path stroke-width="3.8672" fill="none" stroke="#017100" d="m123.139 284.34-81.024-81.024"/></g></g><clipPath id="aU"><path transform="matrix(1 0 0 -1 -255.42 438.75)" d="m298.401 179.177-24.226 24.226 3.829 3.828 24.226-24.226z"/></clipPath><g clip-path="url(#aU)"><clipPath id="aV"><path transform="matrix(1 0 0 -1 -255.42 438.75)" d="M0 9h792v594H0z"/></clipPath><g clip-path="url(#aV)"><path stroke-width="3.8672" fill="none" stroke="#017100" d="M44.349 257.112 21.217 233.98"/></g></g><clipPath id="aW"><path transform="matrix(1 0 0 -1 -255.42 438.75)" d="M315.95 360.914h18.562v18.563h-18.563z"/></clipPath><g clip-path="url(#aW)"><path d="M75.28 63.086a7.734 7.734 0 1 1-10.938 10.938A7.734 7.734 0 0 1 75.28 63.086zm0 0" fill="#fae232"/><path stroke-width="1.54688" fill="none" stroke="#000" d="M75.28 63.086A7.734 7.734 0 1 1 64.34 74.024 7.734 7.734 0 0 1 75.28 63.086zm0 0"/></g><clipPath id="aX"><path transform="matrix(1 0 0 -1 -255.42 438.75)" d="M369.316 360.914h18.563v18.563h-18.563z"/></clipPath><g clip-path="url(#aX)"><path d="M128.647 63.086a7.734 7.734 0 1 1-10.939 10.938 7.734 7.734 0 0 1 10.939-10.938zm0 0" fill="#fae232"/><path stroke-width="1.54688" fill="none" stroke="#000" d="M128.647 63.086a7.734 7.734 0 1 1-10.938 10.938 7.734 7.734 0 0 1 10.938-10.938zm0 0"/></g><clipPath id="aY"><path transform="matrix(1 0 0 -1 -255.42 438.75)" d="M422.684 360.914h18.562v18.563h-18.562z"/></clipPath><g clip-path="url(#aY)"><path d="M182.014 63.086a7.734 7.734 0 1 1-10.938 10.938 7.734 7.734 0 0 1 10.938-10.938zm0 0" fill="#fae232"/><path stroke-width="1.54688" fill="none" stroke="#000" d="M182.014 63.086a7.734 7.734 0 1 1-10.938 10.938 7.734 7.734 0 0 1 10.938-10.938zm0 0"/></g><clipPath id="aZ"><path transform="matrix(1 0 0 -1 -255.42 438.75)" d="M476.824 360.914h18.563v18.563h-18.563z"/></clipPath><g clip-path="url(#aZ)"><path d="M236.155 63.086a7.734 7.734 0 1 1-10.938 10.938 7.734 7.734 0 0 1 10.938-10.938zm0 0" fill="#fae232"/><path stroke-width="1.54688" fill="none" stroke="#000" d="M236.155 63.086a7.734 7.734 0 1 1-10.939 10.938 7.734 7.734 0 0 1 10.939-10.938zm0 0"/></g><clipPath id="ba"><path transform="matrix(1 0 0 -1 -255.42 438.75)" d="M315.95 306.773h18.562v18.563h-18.563z"/></clipPath><g clip-path="url(#ba)"><path d="M75.28 117.226a7.734 7.734 0 1 1-10.938 10.938 7.734 7.734 0 0 1 10.938-10.938zm0 0" fill="#fae232"/><path stroke-width="1.54688" fill="none" stroke="#000" d="M75.28 117.226a7.734 7.734 0 1 1-10.939 10.938 7.734 7.734 0 0 1 10.939-10.938zm0 0"/></g><clipPath id="bb"><path transform="matrix(1 0 0 -1 -255.42 438.75)" d="M369.316 306.773h18.563v18.563h-18.563z"/></clipPath><g clip-path="url(#bb)"><path d="M128.647 117.226a7.734 7.734 0 1 1-10.939 10.938 7.734 7.734 0 0 1 10.939-10.938zm0 0" fill="#fae232"/><path stroke-width="1.54688" fill="none" stroke="#000" d="M128.647 117.226a7.734 7.734 0 1 1-10.938 10.938 7.734 7.734 0 0 1 10.938-10.938zm0 0"/></g><clipPath id="bc"><path transform="matrix(1 0 0 -1 -255.42 438.75)" d="M422.684 306.773h18.562v18.563h-18.562z"/></clipPath><g clip-path="url(#bc)"><path d="M182.014 117.226a7.734 7.734 0 1 1-10.938 10.938 7.734 7.734 0 0 1 10.938-10.938zm0 0" fill="#fae232"/><path stroke-width="1.54688" fill="none" stroke="#000" d="M182.014 117.226a7.734 7.734 0 1 1-10.938 10.938 7.734 7.734 0 0 1 10.938-10.938zm0 0"/></g><clipPath id="bd"><path transform="matrix(1 0 0 -1 -255.42 438.75)" d="M476.824 306.773h18.563v18.563h-18.563z"/></clipPath><g clip-path="url(#bd)"><path d="M236.155 117.226a7.734 7.734 0 1 1-10.938 10.938 7.734 7.734 0 0 1 10.938-10.938zm0 0" fill="#fae232"/><path stroke-width="1.54688" fill="none" stroke="#000" d="M236.155 117.226a7.734 7.734 0 1 1-10.939 10.938 7.734 7.734 0 0 1 10.939-10.938zm0 0"/></g><clipPath id="be"><path transform="matrix(1 0 0 -1 -255.42 438.75)" d="M315.95 252.633h18.562v18.562h-18.563z"/></clipPath><g clip-path="url(#be)"><path d="M75.28 171.367a7.734 7.734 0 1 1-10.938 10.938 7.734 7.734 0 0 1 10.938-10.938zm0 0" fill="#fae232"/><path stroke-width="1.54688" fill="none" stroke="#000" d="M75.28 171.367a7.734 7.734 0 1 1-10.939 10.938 7.734 7.734 0 0 1 10.939-10.938zm0 0"/></g><clipPath id="bf"><path transform="matrix(1 0 0 -1 -255.42 438.75)" d="M369.316 252.633h18.563v18.562h-18.563z"/></clipPath><g clip-path="url(#bf)"><path d="M128.647 171.367a7.735 7.735 0 1 1-10.939 10.938 7.735 7.735 0 0 1 10.939-10.938zm0 0" fill="#fae232"/><path stroke-width="1.54688" fill="none" stroke="#000" d="M128.647 171.367a7.734 7.734 0 1 1-10.938 10.938 7.734 7.734 0 0 1 10.938-10.938zm0 0"/></g><clipPath id="bg"><path transform="matrix(1 0 0 -1 -255.42 438.75)" d="M422.684 252.633h18.562v18.562h-18.562z"/></clipPath><g clip-path="url(#bg)"><path d="M182.014 171.367a7.735 7.735 0 1 1-10.939 10.938 7.735 7.735 0 0 1 10.939-10.938zm0 0" fill="#fae232"/><path stroke-width="1.54688" fill="none" stroke="#000" d="M182.014 171.367a7.734 7.734 0 1 1-10.938 10.938 7.734 7.734 0 0 1 10.938-10.938zm0 0"/></g><clipPath id="bh"><path transform="matrix(1 0 0 -1 -255.42 438.75)" d="M476.824 252.633h18.563v18.562h-18.563z"/></clipPath><g clip-path="url(#bh)"><path d="M236.155 171.367a7.734 7.734 0 1 1-10.938 10.938 7.734 7.734 0 0 1 10.938-10.938zm0 0" fill="#fae232"/><path stroke-width="1.54688" fill="none" stroke="#000" d="M236.155 171.367a7.734 7.734 0 1 1-10.939 10.938 7.734 7.734 0 0 1 10.939-10.938zm0 0"/></g><clipPath id="bi"><path transform="matrix(1 0 0 -1 -255.42 438.75)" d="M315.95 199.266h18.562v18.562h-18.563z"/></clipPath><g clip-path="url(#bi)"><path d="M75.28 224.734a7.734 7.734 0 1 1-10.938 10.938 7.734 7.734 0 0 1 10.938-10.938zm0 0" fill="#fae232"/><path stroke-width="1.54688" fill="none" stroke="#000" d="M75.28 224.734a7.734 7.734 0 1 1-10.939 10.938 7.734 7.734 0 0 1 10.939-10.938zm0 0"/></g><clipPath id="bj"><path transform="matrix(1 0 0 -1 -255.42 438.75)" d="M369.316 199.266h18.563v18.562h-18.563z"/></clipPath><g clip-path="url(#bj)"><path d="M128.647 224.734a7.735 7.735 0 1 1-10.939 10.938 7.735 7.735 0 0 1 10.939-10.938zm0 0" fill="#fae232"/><path stroke-width="1.54688" fill="none" stroke="#000" d="M128.647 224.734a7.734 7.734 0 1 1-10.938 10.938 7.734 7.734 0 0 1 10.938-10.938zm0 0"/></g><clipPath id="bk"><path transform="matrix(1 0 0 -1 -255.42 438.75)" d="M422.684 199.266h18.562v18.562h-18.562z"/></clipPath><g clip-path="url(#bk)"><path d="M182.014 224.734a7.735 7.735 0 1 1-10.939 10.938 7.735 7.735 0 0 1 10.939-10.938zm0 0" fill="#fae232"/><path stroke-width="1.54688" fill="none" stroke="#000" d="M182.014 224.734a7.734 7.734 0 1 1-10.938 10.938 7.734 7.734 0 0 1 10.938-10.938zm0 0"/></g><clipPath id="bl"><path transform="matrix(1 0 0 -1 -255.42 438.75)" d="M476.824 199.266h18.563v18.562h-18.563z"/></clipPath><g clip-path="url(#bl)"><path d="M236.155 224.734a7.734 7.734 0 1 1-10.938 10.938 7.734 7.734 0 0 1 10.938-10.938zm0 0" fill="#fae232"/><path stroke-width="1.54688" fill="none" stroke="#000" d="M236.155 224.734a7.734 7.734 0 1 1-10.939 10.938 7.734 7.734 0 0 1 10.939-10.938zm0 0"/></g><clipPath id="bm"><path transform="matrix(1 0 0 -1 -255.42 438.75)" d="M315.95 412.734h18.562v18.563h-18.563z"/></clipPath><g clip-path="url(#bm)"><path d="M75.28 11.265a7.734 7.734 0 1 1-10.938 10.938A7.734 7.734 0 0 1 75.28 11.265zm0 0" fill="#fae232"/><path stroke-width="1.54688" fill="none" stroke="#000" d="M75.28 11.265A7.734 7.734 0 1 1 64.34 22.203 7.734 7.734 0 0 1 75.28 11.265zm0 0"/></g><clipPath id="bn"><path transform="matrix(1 0 0 -1 -255.42 438.75)" d="M422.684 412.734h18.562v18.563h-18.562z"/></clipPath><g clip-path="url(#bn)"><path d="M182.014 11.265a7.735 7.735 0 1 1-10.939 10.938 7.735 7.735 0 0 1 10.939-10.938zm0 0" fill="#fae232"/><path stroke-width="1.54688" fill="none" stroke="#000" d="M182.014 11.265a7.734 7.734 0 1 1-10.938 10.938 7.734 7.734 0 0 1 10.938-10.938zm0 0"/></g><clipPath id="bo"><path transform="matrix(1 0 0 -1 -255.42 438.75)" d="M369.316 145.898h18.563v18.563h-18.563z"/></clipPath><g clip-path="url(#bo)"><path d="M128.647 278.101a7.734 7.734 0 1 1-10.939 10.938 7.734 7.734 0 0 1 10.939-10.938zm0 0" fill="#fae232"/><path stroke-width="1.54688" fill="none" stroke="#000" d="M128.647 278.101a7.734 7.734 0 1 1-10.938 10.938 7.734 7.734 0 0 1 10.938-10.938zm0 0"/></g><clipPath id="bp"><path transform="matrix(1 0 0 -1 -255.42 438.75)" d="M476.824 145.898h18.563v18.563h-18.563z"/></clipPath><g clip-path="url(#bp)"><path d="M236.155 278.101a7.734 7.734 0 1 1-10.938 10.938 7.734 7.734 0 0 1 10.938-10.938zm0 0" fill="#fae232"/><path stroke-width="1.54688" fill="none" stroke="#000" d="M236.155 278.101a7.734 7.734 0 1 1-10.939 10.938 7.734 7.734 0 0 1 10.939-10.938zm0 0"/></g><clipPath id="bq"><path transform="matrix(1 0 0 -1 -255.42 438.75)" d="M262.582 306.773h18.563v18.563h-18.563z"/></clipPath><g clip-path="url(#bq)"><path d="M21.912 117.226a7.734 7.734 0 1 1-10.937 10.938 7.734 7.734 0 0 1 10.937-10.938zm0 0" fill="#fae232"/><path stroke-width="1.54688" fill="none" stroke="#000" d="M21.912 117.226a7.734 7.734 0 1 1-10.938 10.938 7.734 7.734 0 0 1 10.938-10.938zm0 0"/></g><clipPath id="br"><path transform="matrix(1 0 0 -1 -255.42 438.75)" d="M262.582 199.266h18.563v18.562h-18.563z"/></clipPath><g clip-path="url(#br)"><path d="M21.912 224.734a7.734 7.734 0 1 1-10.938 10.938 7.734 7.734 0 0 1 10.938-10.938zm0 0" fill="#fae232"/><path stroke-width="1.54688" fill="none" stroke="#000" d="M21.912 224.734a7.734 7.734 0 1 1-10.938 10.938 7.734 7.734 0 0 1 10.938-10.938zm0 0"/></g><clipPath id="bs"><path transform="matrix(1 0 0 -1 -255.42 438.75)" d="M530.191 360.914h18.563v18.563H530.19z"/></clipPath><g clip-path="url(#bs)"><path d="M289.522 63.086a7.734 7.734 0 1 1-10.939 10.938 7.734 7.734 0 0 1 10.939-10.938zm0 0" fill="#fae232"/><path stroke-width="1.54688" fill="none" stroke="#000" d="M289.522 63.086a7.734 7.734 0 1 1-10.938 10.938 7.734 7.734 0 0 1 10.938-10.938zm0 0"/></g><clipPath id="bt"><path transform="matrix(1 0 0 -1 -255.42 438.75)" d="M530.191 252.633h18.563v18.562H530.19z"/></clipPath><g clip-path="url(#bt)"><path d="M289.522 171.367a7.735 7.735 0 1 1-10.939 10.938 7.735 7.735 0 0 1 10.939-10.938zm0 0" fill="#fae232"/><path stroke-width="1.54688" fill="none" stroke="#000" d="M289.522 171.367a7.734 7.734 0 1 1-10.938 10.938 7.734 7.734 0 0 1 10.938-10.938zm0 0"/></g><clipPath id="bu"><path transform="matrix(1 0 0 -1 -255.42 438.75)" d="M289.652 385.664h18.563v18.563h-18.563z"/></clipPath><g clip-path="url(#bu)"><path d="M48.983 38.336a7.734 7.734 0 1 1-10.938 10.938 7.734 7.734 0 0 1 10.938-10.938zm0 0" fill="#fff"/><path stroke-width="1.54688" fill="none" stroke="#000" d="M48.983 38.336a7.734 7.734 0 1 1-10.938 10.938 7.734 7.734 0 0 1 10.938-10.938zm0 0"/></g><clipPath id="bv"><path transform="matrix(1 0 0 -1 -255.42 438.75)" d="M342.633 332.64h18.562v18.563h-18.562z"/></clipPath><g clip-path="url(#bv)"><path d="M101.963 91.36a7.734 7.734 0 1 1-10.938 10.938 7.734 7.734 0 0 1 10.938-10.938zm0 0" fill="#fff"/><path stroke-width="1.54688" fill="none" stroke="#000" d="M101.963 91.36a7.734 7.734 0 1 1-10.938 10.938 7.734 7.734 0 0 1 10.938-10.938zm0 0"/></g><clipPath id="bw"><path transform="matrix(1 0 0 -1 -255.42 438.75)" d="M396 279.273h18.563v18.562H396z"/></clipPath><g clip-path="url(#bw)"><path d="M155.33 144.727a7.735 7.735 0 1 1-10.938 10.938 7.735 7.735 0 0 1 10.938-10.938zm0 0" fill="#fff"/><path stroke-width="1.54688" fill="none" stroke="#000" d="M155.33 144.727a7.734 7.734 0 1 1-10.938 10.938 7.734 7.734 0 0 1 10.938-10.938zm0 0"/></g><clipPath id="bx"><path transform="matrix(1 0 0 -1 -255.42 438.75)" d="M396 386.007h18.563v18.563H396z"/></clipPath><g clip-path="url(#bx)"><path d="M155.33 37.993a7.734 7.734 0 1 1-10.938 10.937 7.734 7.734 0 0 1 10.938-10.937zm0 0" fill="#fff"/><path stroke-width="1.54688" fill="none" stroke="#000" d="M155.33 37.992a7.734 7.734 0 1 1-10.938 10.939 7.734 7.734 0 0 1 10.938-10.939zm0 0"/></g><clipPath id="by"><path transform="matrix(1 0 0 -1 -255.42 438.75)" d="M289.266 279.273h18.562v18.562h-18.562z"/></clipPath><g clip-path="url(#by)"><path d="M48.596 144.727a7.734 7.734 0 1 1-10.938 10.938 7.734 7.734 0 0 1 10.938-10.938zm0 0" fill="#fff"/><path stroke-width="1.54688" fill="none" stroke="#000" d="M48.596 144.727a7.734 7.734 0 1 1-10.938 10.938 7.734 7.734 0 0 1 10.938-10.938zm0 0"/></g><clipPath id="bz"><path transform="matrix(1 0 0 -1 -255.42 438.75)" d="M289.266 332.64h18.562v18.563h-18.562z"/></clipPath><g clip-path="url(#bz)"><path d="M48.596 91.36a7.734 7.734 0 1 1-10.938 10.938A7.734 7.734 0 0 1 48.596 91.36zm0 0" fill="#fff"/><path stroke-width="1.54688" fill="none" stroke="#000" d="M48.596 91.36a7.734 7.734 0 1 1-10.938 10.938A7.734 7.734 0 0 1 48.596 91.36zm0 0"/></g><clipPath id="bA"><path transform="matrix(1 0 0 -1 -255.42 438.75)" d="M396 332.64h18.563v18.563H396z"/></clipPath><g clip-path="url(#bA)"><path d="M155.33 91.36a7.734 7.734 0 1 1-10.938 10.938A7.734 7.734 0 0 1 155.33 91.36zm0 0" fill="#fff"/><path stroke-width="1.54688" fill="none" stroke="#000" d="M155.33 91.36a7.734 7.734 0 1 1-10.938 10.938A7.734 7.734 0 0 1 155.33 91.36zm0 0"/></g><clipPath id="bB"><path transform="matrix(1 0 0 -1 -255.42 438.75)" d="M342.633 386.007h18.562v18.563h-18.562z"/></clipPath><g clip-path="url(#bB)"><path d="M101.963 37.993A7.734 7.734 0 1 1 91.025 48.93a7.734 7.734 0 0 1 10.938-10.937zm0 0" fill="#fff"/><path stroke-width="1.54688" fill="none" stroke="#000" d="M101.963 37.992a7.734 7.734 0 1 1-10.938 10.939 7.734 7.734 0 0 1 10.938-10.939zm0 0"/></g><clipPath id="bC"><path transform="matrix(1 0 0 -1 -255.42 438.75)" d="M342.633 279.273h18.562v18.562h-18.562z"/></clipPath><g clip-path="url(#bC)"><path d="M101.963 144.727a7.734 7.734 0 1 1-10.938 10.938 7.734 7.734 0 0 1 10.938-10.938zm0 0" fill="#fff"/><path stroke-width="1.54688" fill="none" stroke="#000" d="M101.963 144.727a7.734 7.734 0 1 1-10.938 10.938 7.734 7.734 0 0 1 10.938-10.938zm0 0"/></g><clipPath id="bD"><path transform="matrix(1 0 0 -1 -255.42 438.75)" d="M449.367 279.273h18.563v18.562h-18.563z"/></clipPath><g clip-path="url(#bD)"><path d="M208.698 144.727a7.735 7.735 0 1 1-10.939 10.938 7.735 7.735 0 0 1 10.939-10.938zm0 0" fill="#fff"/><path stroke-width="1.54688" fill="none" stroke="#000" d="M208.698 144.727a7.734 7.734 0 1 1-10.939 10.938 7.734 7.734 0 0 1 10.939-10.938zm0 0"/></g><clipPath id="bE"><path transform="matrix(1 0 0 -1 -255.42 438.75)" d="M449.367 386.007h18.563v18.563h-18.563z"/></clipPath><g clip-path="url(#bE)"><path d="M208.698 37.993a7.734 7.734 0 1 1-10.939 10.937 7.734 7.734 0 0 1 10.939-10.937zm0 0" fill="#fff"/><path stroke-width="1.54688" fill="none" stroke="#000" d="M208.698 37.992a7.734 7.734 0 1 1-10.939 10.939 7.734 7.734 0 0 1 10.939-10.939zm0 0"/></g><clipPath id="bF"><path transform="matrix(1 0 0 -1 -255.42 438.75)" d="M449.367 332.64h18.563v18.563h-18.563z"/></clipPath><g clip-path="url(#bF)"><path d="M208.698 91.36a7.734 7.734 0 1 1-10.939 10.938 7.734 7.734 0 0 1 10.939-10.938zm0 0" fill="#fff"/><path stroke-width="1.54688" fill="none" stroke="#000" d="M208.698 91.36a7.734 7.734 0 1 1-10.939 10.938 7.734 7.734 0 0 1 10.939-10.938zm0 0"/></g><clipPath id="bG"><path transform="matrix(1 0 0 -1 -255.42 438.75)" d="M503.508 279.273h18.562v18.562h-18.562z"/></clipPath><g clip-path="url(#bG)"><path d="M262.838 144.727a7.734 7.734 0 1 1-10.938 10.938 7.734 7.734 0 0 1 10.938-10.938zm0 0" fill="#fff"/><path stroke-width="1.54688" fill="none" stroke="#000" d="M262.838 144.727a7.734 7.734 0 1 1-10.938 10.938 7.734 7.734 0 0 1 10.938-10.938zm0 0"/></g><clipPath id="bH"><path transform="matrix(1 0 0 -1 -255.42 438.75)" d="M503.508 386.007h18.562v18.563h-18.562z"/></clipPath><g clip-path="url(#bH)"><path d="M262.838 37.993A7.734 7.734 0 1 1 251.9 48.93a7.734 7.734 0 0 1 10.938-10.937zm0 0" fill="#fff"/><path stroke-width="1.54688" fill="none" stroke="#000" d="M262.838 37.992A7.734 7.734 0 1 1 251.9 48.931a7.734 7.734 0 0 1 10.938-10.939zm0 0"/></g><clipPath id="bI"><path transform="matrix(1 0 0 -1 -255.42 438.75)" d="M503.508 332.64h18.562v18.563h-18.562z"/></clipPath><g clip-path="url(#bI)"><path d="M262.838 91.36a7.734 7.734 0 1 1-10.938 10.938 7.734 7.734 0 0 1 10.938-10.938zm0 0" fill="#fff"/><path stroke-width="1.54688" fill="none" stroke="#000" d="M262.838 91.36a7.734 7.734 0 1 1-10.938 10.938 7.734 7.734 0 0 1 10.938-10.938zm0 0"/></g><clipPath id="bJ"><path transform="matrix(1 0 0 -1 -255.42 438.75)" d="M342.633 225.906h18.562v18.562h-18.562z"/></clipPath><g clip-path="url(#bJ)"><path d="M101.963 198.094a7.734 7.734 0 1 1-10.938 10.938 7.734 7.734 0 0 1 10.938-10.938zm0 0" fill="#fff"/><path stroke-width="1.54688" fill="none" stroke="#000" d="M101.963 198.094a7.734 7.734 0 1 1-10.938 10.938 7.734 7.734 0 0 1 10.938-10.938zm0 0"/></g><clipPath id="bK"><path transform="matrix(1 0 0 -1 -255.42 438.75)" d="M396 172.538h18.563v18.563H396z"/></clipPath><g clip-path="url(#bK)"><path d="M155.33 251.461a7.735 7.735 0 1 1-10.938 10.938 7.735 7.735 0 0 1 10.938-10.938zm0 0" fill="#fff"/><path stroke-width="1.54688" fill="none" stroke="#000" d="M155.33 251.461a7.734 7.734 0 1 1-10.938 10.938 7.734 7.734 0 0 1 10.938-10.938zm0 0"/></g><clipPath id="bL"><path transform="matrix(1 0 0 -1 -255.42 438.75)" d="M289.266 172.538h18.562v18.563h-18.562z"/></clipPath><g clip-path="url(#bL)"><path d="M48.596 251.461A7.734 7.734 0 1 1 37.658 262.4a7.734 7.734 0 0 1 10.938-10.938zm0 0" fill="#fff"/><path stroke-width="1.54688" fill="none" stroke="#000" d="M48.596 251.461A7.734 7.734 0 1 1 37.658 262.4a7.734 7.734 0 0 1 10.938-10.938zm0 0"/></g><clipPath id="bM"><path transform="matrix(1 0 0 -1 -255.42 438.75)" d="M289.266 225.906h18.562v18.562h-18.562z"/></clipPath><g clip-path="url(#bM)"><path d="M48.596 198.094a7.734 7.734 0 1 1-10.938 10.938 7.734 7.734 0 0 1 10.938-10.938zm0 0" fill="#fff"/><path stroke-width="1.54688" fill="none" stroke="#000" d="M48.596 198.094a7.734 7.734 0 1 1-10.938 10.938 7.734 7.734 0 0 1 10.938-10.938zm0 0"/></g><clipPath id="bN"><path transform="matrix(1 0 0 -1 -255.42 438.75)" d="M396 225.906h18.563v18.562H396z"/></clipPath><g clip-path="url(#bN)"><path d="M155.33 198.094a7.735 7.735 0 1 1-10.938 10.938 7.735 7.735 0 0 1 10.938-10.938zm0 0" fill="#fff"/><path stroke-width="1.54688" fill="none" stroke="#000" d="M155.33 198.094a7.734 7.734 0 1 1-10.938 10.938 7.734 7.734 0 0 1 10.938-10.938zm0 0"/></g><clipPath id="bO"><path transform="matrix(1 0 0 -1 -255.42 438.75)" d="M342.633 172.538h18.562v18.563h-18.562z"/></clipPath><g clip-path="url(#bO)"><path d="M101.963 251.461A7.734 7.734 0 1 1 91.025 262.4a7.734 7.734 0 0 1 10.938-10.938zm0 0" fill="#fff"/><path stroke-width="1.54688" fill="none" stroke="#000" d="M101.963 251.461A7.734 7.734 0 1 1 91.025 262.4a7.734 7.734 0 0 1 10.938-10.938zm0 0"/></g><clipPath id="bP"><path transform="matrix(1 0 0 -1 -255.42 438.75)" d="M449.367 172.538h18.563v18.563h-18.563z"/></clipPath><g clip-path="url(#bP)"><path d="M208.698 251.461a7.735 7.735 0 1 1-10.939 10.938 7.735 7.735 0 0 1 10.939-10.938zm0 0" fill="#fff"/><path stroke-width="1.54688" fill="none" stroke="#000" d="M208.698 251.461a7.734 7.734 0 1 1-10.939 10.938 7.734 7.734 0 0 1 10.939-10.938zm0 0"/></g><clipPath id="bQ"><path transform="matrix(1 0 0 -1 -255.42 438.75)" d="M449.367 225.906h18.563v18.562h-18.563z"/></clipPath><g clip-path="url(#bQ)"><path d="M208.698 198.094a7.735 7.735 0 1 1-10.939 10.938 7.735 7.735 0 0 1 10.939-10.938zm0 0" fill="#fff"/><path stroke-width="1.54688" fill="none" stroke="#000" d="M208.698 198.094a7.734 7.734 0 1 1-10.939 10.938 7.734 7.734 0 0 1 10.939-10.938zm0 0"/></g><clipPath id="bR"><path transform="matrix(1 0 0 -1 -255.42 438.75)" d="M503.508 172.538h18.562v18.563h-18.562z"/></clipPath><g clip-path="url(#bR)"><path d="M262.838 251.461A7.734 7.734 0 1 1 251.9 262.4a7.734 7.734 0 0 1 10.938-10.938zm0 0" fill="#fff"/><path stroke-width="1.54688" fill="none" stroke="#000" d="M262.838 251.461A7.734 7.734 0 1 1 251.9 262.4a7.734 7.734 0 0 1 10.938-10.938zm0 0"/></g><clipPath id="bS"><path transform="matrix(1 0 0 -1 -255.42 438.75)" d="M503.508 225.906h18.562v18.562h-18.562z"/></clipPath><g clip-path="url(#bS)"><path d="M262.838 198.094a7.734 7.734 0 1 1-10.938 10.938 7.734 7.734 0 0 1 10.938-10.938zm0 0" fill="#fff"/><path stroke-width="1.54688" fill="none" stroke="#000" d="M262.838 198.094a7.734 7.734 0 1 1-10.938 10.938 7.734 7.734 0 0 1 10.938-10.938zm0 0"/></g></g></g></svg>