<svg xmlns="http://www.w3.org/2000/svg" xmlns:xlink="http://www.w3.org/1999/xlink" width="487.08" height="370.92" viewBox="0 0 365.31 278.19"><clipPath id="a"><path transform="matrix(1 0 0 -1 -180.18 426.87)" d="M0 0h792v612H0z"/></clipPath><g clip-path="url(#a)"><clipPath id="b"><path transform="matrix(1 0 0 -1 -180.18 426.87)" d="M0 9h792v594H0z"/></clipPath><g clip-path="url(#b)"><path d="M-180.18-176.13h792v594h-792z" fill="#fff"/><clipPath id="c"><path transform="matrix(1 0 0 -1 -180.18 426.87)" d="M350.04 339.957h57.065v57.066H350.04z"/></clipPath><g clip-path="url(#c)"><path d="M171.793 84.98h53.199v-53.2h-53.2z" fill="#929292" fill-opacity=".506"/><path stroke-width="2.32032" fill="none" stroke="#5e5e5e" d="M224.992 31.78h-53.199v53.2h53.199z"/></g><clipPath id="d"><path transform="matrix(1 0 0 -1 -180.18 426.87)" d="M296.84 286.758h57.067v57.066H296.84z"/></clipPath><g clip-path="url(#d)"><path d="M118.594 138.178h53.199V84.98h-53.199z" fill="#929292" fill-opacity=".506"/><path stroke-width="2.32032" fill="none" stroke="#5e5e5e" d="M171.793 84.98h-53.199v53.198h53.199z"/></g><clipPath id="e"><path transform="matrix(1 0 0 -1 -180.18 426.87)" d="M296.708 393.111h57.208V421.2h-57.208z"/></clipPath><g clip-path="url(#e)"><path d="m171.697 31.822-53.125-.116c1.254-13.698 12.85-24.17 26.699-24.1 13.787.068 25.247 10.572 26.426 24.216zm0 0" fill="#929292" fill-opacity=".506"/><path stroke-width="2.32032" fill="none" stroke="#5e5e5e" d="m171.697 31.822-53.125-.116c1.254-13.698 12.851-24.17 26.699-24.1 13.787.068 25.247 10.572 26.426 24.216zm0 0"/></g><clipPath id="f"><path transform="matrix(1 0 0 -1 -180.18 426.87)" d="M272.637 286.72v57.209h28.087V286.72z"/></clipPath><g clip-path="url(#f)"><clipPath id="g"><path transform="matrix(1 0 0 -1 -180.18 426.87)" d="M0 9h792v594H0z"/></clipPath><g clip-path="url(#g)"><path stroke-width="2.32032" fill="none" stroke="#5e5e5e" d="m118.608 138.11-.117-53.124c-13.697 1.253-24.17 12.85-24.1 26.698.069 13.787 10.572 25.247 24.217 26.426zm0 0"/></g></g><clipPath id="h"><path transform="matrix(1 0 0 -1 -180.18 426.87)" d="M296.867 342.086v52.809h3.867v-52.81z"/></clipPath><g clip-path="url(#h)"><clipPath id="i"><path transform="matrix(1 0 0 -1 -180.18 426.87)" d="M0 9h792v594H0z"/></clipPath><g clip-path="url(#i)"><path stroke-width="2.32032" fill="none" stroke="#5e5e5e" d="M118.62 84.01V32.75"/></g></g><clipPath id="j"><path transform="matrix(1 0 0 -1 -180.18 426.87)" d="M510.772 288.887v52.809h3.868v-52.81z"/></clipPath><g clip-path="url(#j)"><clipPath id="k"><path transform="matrix(1 0 0 -1 -180.18 426.87)" d="M0 9h792v594H0z"/></clipPath><g clip-path="url(#k)"><path stroke-width="2.32032" fill="none" stroke="#5e5e5e" d="M332.526 137.21V85.948"/></g></g><clipPath id="l"><path transform="matrix(1 0 0 -1 -180.18 426.87)" d="M404.989 393.111h57.208V421.2h-57.208z"/></clipPath><g clip-path="url(#l)"><path d="m279.978 31.822-53.124-.116c1.253-13.698 12.85-24.17 26.698-24.1 13.787.068 25.247 10.572 26.426 24.216zm0 0" fill="#929292" fill-opacity=".506"/><path stroke-width="2.32032" fill="none" stroke="#5e5e5e" d="m279.978 31.822-53.124-.116c1.253-13.698 12.85-24.17 26.698-24.1 13.787.068 25.247 10.572 26.426 24.216zm0 0"/></g><clipPath id="m"><path transform="matrix(1 0 0 -1 -180.18 426.87)" d="M457.547 339.957h57.066v57.066h-57.066z"/></clipPath><g clip-path="url(#m)"><path d="M279.3 84.98h53.2v-53.2h-53.2z" fill="#929292" fill-opacity=".506"/><path stroke-width="2.32032" fill="none" stroke="#5e5e5e" d="M332.5 31.78h-53.2v53.2h53.2z"/></g><clipPath id="n"><path transform="matrix(1 0 0 -1 -180.18 426.87)" d="M538.7 339.92v57.208h-28.088V339.92z"/></clipPath><g clip-path="url(#n)"><clipPath id="o"><path transform="matrix(1 0 0 -1 -180.18 426.87)" d="M0 9h792v594H0z"/></clipPath><g clip-path="url(#o)"><path stroke-width="2.32032" fill="none" stroke="#5e5e5e" d="m332.368 84.912.117-53.125c13.697 1.253 24.17 12.85 24.1 26.698-.069 13.787-10.572 25.247-24.217 26.427zm0 0"/></g></g><clipPath id="p"><path transform="matrix(1 0 0 -1 -180.18 426.87)" d="M403.575 286.758h57.066v57.066h-57.066z"/></clipPath><g clip-path="url(#p)"><path d="M225.329 138.178h53.198V84.98H225.33z" fill="#929292" fill-opacity=".506"/><path stroke-width="2.32032" fill="none" stroke="#5e5e5e" d="M278.527 84.98h-53.199v53.198h53.2z"/></g><clipPath id="q"><path transform="matrix(1 0 0 -1 -180.18 426.87)" d="M350.04 233.223h57.065v57.066H350.04z"/></clipPath><g clip-path="url(#q)"><path d="M171.793 191.714h53.199v-53.2h-53.2z" fill="#929292" fill-opacity=".506"/><path stroke-width="2.32032" fill="none" stroke="#5e5e5e" d="M224.992 138.515h-53.199v53.199h53.199z"/></g><clipPath id="r"><path transform="matrix(1 0 0 -1 -180.18 426.87)" d="M296.84 180.024h57.067v57.066H296.84z"/></clipPath><g clip-path="url(#r)"><path d="M118.594 244.912h53.199v-53.198h-53.199z" fill="#929292" fill-opacity=".506"/><path stroke-width="2.32032" fill="none" stroke="#5e5e5e" d="M171.793 191.714h-53.199v53.199h53.199z"/></g><clipPath id="s"><path transform="matrix(1 0 0 -1 -180.18 426.87)" d="M407.114 155.91h-57.207v28.087h57.207z"/></clipPath><g clip-path="url(#s)"><clipPath id="t"><path transform="matrix(1 0 0 -1 -180.18 426.87)" d="M0 9h792v594H0z"/></clipPath><g clip-path="url(#t)"><path d="m224.896 244.81-53.125.116c1.254 13.698 12.85 24.17 26.698 24.1 13.788-.069 25.247-10.572 26.427-24.216zm0 0" fill="#929292" fill-opacity=".506"/><path stroke-width="2.32032" fill="none" stroke="#5e5e5e" d="m224.896 244.81-53.125.116c1.254 13.698 12.85 24.17 26.698 24.1 13.788-.069 25.247-10.572 26.427-24.217zm0 0"/></g></g><clipPath id="u"><path transform="matrix(1 0 0 -1 -180.18 426.87)" d="M272.637 179.987v57.207h28.087v-57.207z"/></clipPath><g clip-path="url(#u)"><clipPath id="v"><path transform="matrix(1 0 0 -1 -180.18 426.87)" d="M0 9h792v594H0z"/></clipPath><g clip-path="url(#v)"><path stroke-width="2.32032" fill="none" stroke="#5e5e5e" d="m118.608 244.845-.117-53.125c-13.697 1.254-24.17 12.85-24.1 26.698.069 13.788 10.572 25.247 24.217 26.427zm0 0"/></g></g><clipPath id="w"><path transform="matrix(1 0 0 -1 -180.18 426.87)" d="M510.772 182.152v52.81h3.868v-52.81z"/></clipPath><g clip-path="url(#w)"><clipPath id="x"><path transform="matrix(1 0 0 -1 -180.18 426.87)" d="M0 9h792v594H0z"/></clipPath><g clip-path="url(#x)"><path stroke-width="2.32032" fill="none" stroke="#5e5e5e" d="M332.526 243.944v-51.262"/></g></g><clipPath id="y"><path transform="matrix(1 0 0 -1 -180.18 426.87)" d="M457.547 233.223h57.066v57.066h-57.066z"/></clipPath><g clip-path="url(#y)"><path d="M279.3 191.714h53.2v-53.2h-53.2z" fill="#929292" fill-opacity=".506"/><path stroke-width="2.32032" fill="none" stroke="#5e5e5e" d="M332.5 138.515h-53.2v53.199h53.2z"/></g><clipPath id="z"><path transform="matrix(1 0 0 -1 -180.18 426.87)" d="M538.7 233.185v57.208h-28.088v-57.208z"/></clipPath><g clip-path="url(#z)"><clipPath id="A"><path transform="matrix(1 0 0 -1 -180.18 426.87)" d="M0 9h792v594H0z"/></clipPath><g clip-path="url(#A)"><path stroke-width="2.32032" fill="none" stroke="#5e5e5e" d="m332.368 191.646.117-53.125c13.697 1.254 24.17 12.85 24.1 26.699-.069 13.787-10.572 25.247-24.217 26.426zm0 0"/></g></g><clipPath id="B"><path transform="matrix(1 0 0 -1 -180.18 426.87)" d="M403.575 180.024h57.066v57.066h-57.066z"/></clipPath><g clip-path="url(#B)"><path d="M225.329 244.912h53.198v-53.198H225.33z" fill="#929292" fill-opacity=".506"/><path stroke-width="2.32032" fill="none" stroke="#5e5e5e" d="M278.527 191.714h-53.199v53.199h53.2z"/></g><clipPath id="C"><path transform="matrix(1 0 0 -1 -180.18 426.87)" d="M296.867 235.351v52.81h3.867v-52.81z"/></clipPath><g clip-path="url(#C)"><clipPath id="D"><path transform="matrix(1 0 0 -1 -180.18 426.87)" d="M0 9h792v594H0z"/></clipPath><g clip-path="url(#D)"><path stroke-width="2.32032" fill="none" stroke="#5e5e5e" d="M118.62 190.745v-51.262"/></g></g><clipPath id="E"><path transform="matrix(1 0 0 -1 -180.18 426.87)" d="M515.396 155.91h-57.208v28.087h57.208z"/></clipPath><g clip-path="url(#E)"><clipPath id="F"><path transform="matrix(1 0 0 -1 -180.18 426.87)" d="M0 9h792v594H0z"/></clipPath><g clip-path="url(#F)"><path d="m333.177 244.81-53.125.116c1.254 13.698 12.851 24.17 26.699 24.1 13.787-.069 25.247-10.572 26.426-24.216zm0 0" fill="#929292" fill-opacity=".506"/><path stroke-width="2.32032" fill="none" stroke="#5e5e5e" d="m333.177 244.81-53.125.116c1.254 13.698 12.851 24.17 26.699 24.1 13.787-.069 25.247-10.572 26.426-24.217zm0 0"/></g></g><clipPath id="G"><path transform="matrix(1 0 0 -1 -180.18 426.87)" d="M0 9h792v594H0z"/></clipPath><g clip-path="url(#G)"><path stroke-width="4.64064" stroke-dasharray="4.64064,4.64064" fill="none" stroke="#0076ba" d="m144.757 111.347 54.574 53.666 106.4-105.836 53.332 52.04"/></g><path d="m144.664 99.214 2.605 8.016h8.428l-6.818 4.955 2.604 8.016-6.82-4.954-6.819 4.954 2.605-8.016-6.819-4.955h8.429z" fill="#0076ba" data-name="P"/><path stroke-width="4.64064" stroke-dasharray="4.64064,4.64064" fill="none" stroke="#ee220c" d="m251.418 56.762 53.667 54.574-52.29 55.088" data-name="P"/><clipPath id="H"><path transform="matrix(1 0 0 -1 -180.18 426.87)" d="M420.544 358.49h23.615v22.533h-23.615z"/></clipPath><g clip-path="url(#H)"><path d="m252.172 46.62 2.605 8.016h8.428l-6.818 4.955 2.604 8.016-6.82-4.954-6.819 4.954 2.605-8.016-6.82-4.954h8.43z" fill="#ee220c"/></g><clipPath id="I"><path transform="matrix(1 0 0 -1 -180.18 426.87)" d="M420.544 250.981h23.615v22.535h-23.615z"/></clipPath><g clip-path="url(#I)"><path d="m252.172 154.128 2.605 8.016h8.428l-6.818 4.955 2.604 8.016-6.82-4.954-6.819 4.954 2.605-8.016-6.82-4.955h8.43z" fill="#ee220c"/></g><clipPath id="J"><path transform="matrix(1 0 0 -1 -180.18 426.87)" d="M289.652 385.664h18.563v18.563h-18.563z"/></clipPath><g clip-path="url(#J)"><path d="M124.223 26.456a7.734 7.734 0 1 1-10.938 10.938 7.734 7.734 0 0 1 10.938-10.938zm0 0" fill="#fff"/><path stroke-width="1.54688" fill="none" stroke="#000" d="M124.223 26.456a7.734 7.734 0 1 1-10.938 10.938 7.734 7.734 0 0 1 10.938-10.938zm0 0"/></g><clipPath id="K"><path transform="matrix(1 0 0 -1 -180.18 426.87)" d="M342.633 332.64h18.562v18.563h-18.562z"/></clipPath><g clip-path="url(#K)"><path d="M177.203 79.48a7.734 7.734 0 1 1-10.938 10.938 7.734 7.734 0 0 1 10.938-10.938zm0 0" fill="#fff"/><path stroke-width="1.54688" fill="none" stroke="#000" d="M177.203 79.48a7.734 7.734 0 1 1-10.938 10.938 7.734 7.734 0 0 1 10.938-10.938zm0 0"/></g><clipPath id="L"><path transform="matrix(1 0 0 -1 -180.18 426.87)" d="M396 279.273h18.563v18.562H396z"/></clipPath><g clip-path="url(#L)"><path d="M230.57 132.847a7.735 7.735 0 1 1-10.938 10.938 7.735 7.735 0 0 1 10.938-10.938zm0 0" fill="#fff"/><path stroke-width="1.54688" fill="none" stroke="#000" d="M230.57 132.847a7.734 7.734 0 1 1-10.938 10.938 7.734 7.734 0 0 1 10.938-10.938zm0 0"/></g><clipPath id="M"><path transform="matrix(1 0 0 -1 -180.18 426.87)" d="M396 386.007h18.563v18.563H396z"/></clipPath><g clip-path="url(#M)"><path d="M230.57 26.113a7.734 7.734 0 1 1-10.938 10.938 7.734 7.734 0 0 1 10.938-10.938zm0 0" fill="#fff"/><path stroke-width="1.54688" fill="none" stroke="#000" d="M230.57 26.112a7.734 7.734 0 1 1-10.938 10.939 7.734 7.734 0 0 1 10.938-10.939zm0 0"/></g><clipPath id="N"><path transform="matrix(1 0 0 -1 -180.18 426.87)" d="M289.266 279.273h18.562v18.562h-18.562z"/></clipPath><g clip-path="url(#N)"><path d="M123.836 132.847a7.734 7.734 0 1 1-10.938 10.938 7.734 7.734 0 0 1 10.938-10.938zm0 0" fill="#fff"/><path stroke-width="1.54688" fill="none" stroke="#000" d="M123.836 132.847a7.734 7.734 0 1 1-10.938 10.938 7.734 7.734 0 0 1 10.938-10.938zm0 0"/></g><clipPath id="O"><path transform="matrix(1 0 0 -1 -180.18 426.87)" d="M289.266 332.64h18.562v18.563h-18.562z"/></clipPath><g clip-path="url(#O)"><path d="M123.836 79.48a7.734 7.734 0 1 1-10.938 10.938 7.734 7.734 0 0 1 10.938-10.938zm0 0" fill="#fff"/><path stroke-width="1.54688" fill="none" stroke="#000" d="M123.836 79.48a7.734 7.734 0 1 1-10.938 10.938 7.734 7.734 0 0 1 10.938-10.938zm0 0"/></g><clipPath id="P"><path transform="matrix(1 0 0 -1 -180.18 426.87)" d="M396 332.64h18.563v18.563H396z"/></clipPath><g clip-path="url(#P)"><path d="M230.57 79.48a7.734 7.734 0 1 1-10.938 10.938A7.734 7.734 0 0 1 230.57 79.48zm0 0" fill="#fff"/><path stroke-width="1.54688" fill="none" stroke="#000" d="M230.57 79.48a7.734 7.734 0 1 1-10.938 10.938A7.734 7.734 0 0 1 230.57 79.48zm0 0"/></g><clipPath id="Q"><path transform="matrix(1 0 0 -1 -180.18 426.87)" d="M342.633 386.007h18.562v18.563h-18.562z"/></clipPath><g clip-path="url(#Q)"><path d="M177.203 26.113a7.734 7.734 0 1 1-10.938 10.937 7.734 7.734 0 0 1 10.938-10.937zm0 0" fill="#fff"/><path stroke-width="1.54688" fill="none" stroke="#000" d="M177.203 26.112a7.734 7.734 0 1 1-10.938 10.939 7.734 7.734 0 0 1 10.938-10.939zm0 0"/></g><clipPath id="R"><path transform="matrix(1 0 0 -1 -180.18 426.87)" d="M342.633 279.273h18.562v18.562h-18.562z"/></clipPath><g clip-path="url(#R)"><path d="M177.203 132.847a7.734 7.734 0 1 1-10.938 10.938 7.734 7.734 0 0 1 10.938-10.938zm0 0" fill="#fff"/><path stroke-width="1.54688" fill="none" stroke="#000" d="M177.203 132.847a7.734 7.734 0 1 1-10.938 10.938 7.734 7.734 0 0 1 10.938-10.938zm0 0"/></g><clipPath id="S"><path transform="matrix(1 0 0 -1 -180.18 426.87)" d="M449.367 279.273h18.563v18.562h-18.563z"/></clipPath><g clip-path="url(#S)"><path d="M283.938 132.847a7.735 7.735 0 1 1-10.939 10.938 7.735 7.735 0 0 1 10.938-10.938zm0 0" fill="#fff"/><path stroke-width="1.54688" fill="none" stroke="#000" d="M283.938 132.847a7.734 7.734 0 1 1-10.939 10.938 7.734 7.734 0 0 1 10.939-10.938zm0 0"/></g><clipPath id="T"><path transform="matrix(1 0 0 -1 -180.18 426.87)" d="M449.367 386.007h18.563v18.563h-18.563z"/></clipPath><g clip-path="url(#T)"><path d="M283.938 26.113a7.734 7.734 0 1 1-10.939 10.938 7.734 7.734 0 0 1 10.938-10.938zm0 0" fill="#fff"/><path stroke-width="1.54688" fill="none" stroke="#000" d="M283.938 26.112a7.734 7.734 0 1 1-10.939 10.939 7.734 7.734 0 0 1 10.939-10.939zm0 0"/></g><clipPath id="U"><path transform="matrix(1 0 0 -1 -180.18 426.87)" d="M449.367 332.64h18.563v18.563h-18.563z"/></clipPath><g clip-path="url(#U)"><path d="M283.938 79.48a7.734 7.734 0 1 1-10.939 10.938 7.734 7.734 0 0 1 10.938-10.938zm0 0" fill="#fff"/><path stroke-width="1.54688" fill="none" stroke="#000" d="M283.938 79.48a7.734 7.734 0 1 1-10.939 10.938 7.734 7.734 0 0 1 10.939-10.938zm0 0"/></g><clipPath id="V"><path transform="matrix(1 0 0 -1 -180.18 426.87)" d="M503.508 279.273h18.562v18.562h-18.562z"/></clipPath><g clip-path="url(#V)"><path d="M338.078 132.847a7.734 7.734 0 1 1-10.938 10.938 7.734 7.734 0 0 1 10.938-10.938zm0 0" fill="#fff"/><path stroke-width="1.54688" fill="none" stroke="#000" d="M338.078 132.847a7.734 7.734 0 1 1-10.938 10.938 7.734 7.734 0 0 1 10.938-10.938zm0 0"/></g><clipPath id="W"><path transform="matrix(1 0 0 -1 -180.18 426.87)" d="M503.508 386.007h18.562v18.563h-18.562z"/></clipPath><g clip-path="url(#W)"><path d="M338.078 26.113A7.734 7.734 0 1 1 327.14 37.05a7.734 7.734 0 0 1 10.938-10.937zm0 0" fill="#fff"/><path stroke-width="1.54688" fill="none" stroke="#000" d="M338.078 26.112a7.734 7.734 0 1 1-10.938 10.939 7.734 7.734 0 0 1 10.938-10.939zm0 0"/></g><clipPath id="X"><path transform="matrix(1 0 0 -1 -180.18 426.87)" d="M503.508 332.64h18.562v18.563h-18.562z"/></clipPath><g clip-path="url(#X)"><path d="M338.078 79.48a7.734 7.734 0 1 1-10.938 10.938 7.734 7.734 0 0 1 10.938-10.938zm0 0" fill="#fff"/><path stroke-width="1.54688" fill="none" stroke="#000" d="M338.078 79.48a7.734 7.734 0 1 1-10.938 10.938 7.734 7.734 0 0 1 10.938-10.938zm0 0"/></g><clipPath id="Y"><path transform="matrix(1 0 0 -1 -180.18 426.87)" d="M342.633 225.906h18.562v18.562h-18.562z"/></clipPath><g clip-path="url(#Y)"><path d="M177.203 186.214a7.734 7.734 0 1 1-10.938 10.938 7.734 7.734 0 0 1 10.938-10.938zm0 0" fill="#fff"/><path stroke-width="1.54688" fill="none" stroke="#000" d="M177.203 186.214a7.734 7.734 0 1 1-10.938 10.938 7.734 7.734 0 0 1 10.938-10.938zm0 0"/></g><clipPath id="Z"><path transform="matrix(1 0 0 -1 -180.18 426.87)" d="M396 172.538h18.563v18.563H396z"/></clipPath><g clip-path="url(#Z)"><path d="M230.57 239.581a7.735 7.735 0 1 1-10.938 10.938 7.735 7.735 0 0 1 10.938-10.938zm0 0" fill="#fff"/><path stroke-width="1.54688" fill="none" stroke="#000" d="M230.57 239.581a7.734 7.734 0 1 1-10.938 10.938 7.734 7.734 0 0 1 10.938-10.938zm0 0"/></g><clipPath id="aa"><path transform="matrix(1 0 0 -1 -180.18 426.87)" d="M289.266 172.538h18.562v18.563h-18.562z"/></clipPath><g clip-path="url(#aa)"><path d="M123.836 239.581a7.734 7.734 0 1 1-10.938 10.938 7.734 7.734 0 0 1 10.938-10.938zm0 0" fill="#fff"/><path stroke-width="1.54688" fill="none" stroke="#000" d="M123.836 239.581a7.734 7.734 0 1 1-10.938 10.938 7.734 7.734 0 0 1 10.938-10.938zm0 0"/></g><clipPath id="ab"><path transform="matrix(1 0 0 -1 -180.18 426.87)" d="M289.266 225.906h18.562v18.562h-18.562z"/></clipPath><g clip-path="url(#ab)"><path d="M123.836 186.214a7.734 7.734 0 1 1-10.938 10.938 7.734 7.734 0 0 1 10.938-10.938zm0 0" fill="#fff"/><path stroke-width="1.54688" fill="none" stroke="#000" d="M123.836 186.214a7.734 7.734 0 1 1-10.938 10.938 7.734 7.734 0 0 1 10.938-10.938zm0 0"/></g><clipPath id="ac"><path transform="matrix(1 0 0 -1 -180.18 426.87)" d="M396 225.906h18.563v18.562H396z"/></clipPath><g clip-path="url(#ac)"><path d="M230.57 186.214a7.735 7.735 0 1 1-10.938 10.938 7.735 7.735 0 0 1 10.938-10.938zm0 0" fill="#fff"/><path stroke-width="1.54688" fill="none" stroke="#000" d="M230.57 186.214a7.734 7.734 0 1 1-10.938 10.938 7.734 7.734 0 0 1 10.938-10.938zm0 0"/></g><clipPath id="ad"><path transform="matrix(1 0 0 -1 -180.18 426.87)" d="M342.633 172.538h18.562v18.563h-18.562z"/></clipPath><g clip-path="url(#ad)"><path d="M177.203 239.581a7.734 7.734 0 1 1-10.938 10.938 7.734 7.734 0 0 1 10.938-10.938zm0 0" fill="#fff"/><path stroke-width="1.54688" fill="none" stroke="#000" d="M177.203 239.581a7.734 7.734 0 1 1-10.938 10.938 7.734 7.734 0 0 1 10.938-10.938zm0 0"/></g><clipPath id="ae"><path transform="matrix(1 0 0 -1 -180.18 426.87)" d="M449.367 172.538h18.563v18.563h-18.563z"/></clipPath><g clip-path="url(#ae)"><path d="M283.938 239.581a7.735 7.735 0 1 1-10.939 10.938 7.735 7.735 0 0 1 10.938-10.938zm0 0" fill="#fff"/><path stroke-width="1.54688" fill="none" stroke="#000" d="M283.938 239.581a7.734 7.734 0 1 1-10.939 10.938 7.734 7.734 0 0 1 10.939-10.938zm0 0"/></g><clipPath id="af"><path transform="matrix(1 0 0 -1 -180.18 426.87)" d="M449.367 225.906h18.563v18.562h-18.563z"/></clipPath><g clip-path="url(#af)"><path d="M283.938 186.214a7.735 7.735 0 1 1-10.939 10.938 7.735 7.735 0 0 1 10.938-10.938zm0 0" fill="#fff"/><path stroke-width="1.54688" fill="none" stroke="#000" d="M283.938 186.214a7.734 7.734 0 1 1-10.939 10.938 7.734 7.734 0 0 1 10.939-10.938zm0 0"/></g><clipPath id="ag"><path transform="matrix(1 0 0 -1 -180.18 426.87)" d="M503.508 172.538h18.562v18.563h-18.562z"/></clipPath><g clip-path="url(#ag)"><path d="M338.078 239.581a7.734 7.734 0 1 1-10.938 10.938 7.734 7.734 0 0 1 10.938-10.938zm0 0" fill="#fff"/><path stroke-width="1.54688" fill="none" stroke="#000" d="M338.078 239.581a7.734 7.734 0 1 1-10.938 10.938 7.734 7.734 0 0 1 10.938-10.938zm0 0"/></g><clipPath id="ah"><path transform="matrix(1 0 0 -1 -180.18 426.87)" d="M503.508 225.906h18.562v18.562h-18.562z"/></clipPath><g clip-path="url(#ah)"><path d="M338.078 186.214a7.734 7.734 0 1 1-10.938 10.938 7.734 7.734 0 0 1 10.938-10.938zm0 0" fill="#fff"/><path stroke-width="1.54688" fill="none" stroke="#000" d="M338.078 186.214a7.734 7.734 0 1 1-10.938 10.938 7.734 7.734 0 0 1 10.938-10.938zm0 0"/></g><clipPath id="ai"><path transform="matrix(1 0 0 -1 -180.18 426.87)" d="M0 9h792v594H0z"/></clipPath><g clip-path="url(#ai)"><path stroke-width="1.54688" fill="none" stroke="#000" d="m71.302 34.342 66.555 20.85.738.231"/><path d="m136.747 58.735 8.195-1.323-5.976-5.763z"/></g><g data-name="P"><path stroke-width="1.54688" fill="none" stroke="#000" d="m71.302 242.263 66.555-20.85.738-.231"/><path d="m138.966 224.956 5.976-5.763-8.195-1.323z"/></g><clipPath id="aj"><path transform="matrix(1 0 0 -1 -180.18 426.87)" d="M187.3 155.607h57.067v57.066H187.3z"/></clipPath><g clip-path="url(#aj)"><path d="M9.054 269.33h53.2v-53.2h-53.2z" fill="#929292" fill-opacity=".506"/><path stroke-width="2.32032" fill="none" stroke="#5e5e5e" d="M62.253 216.13H9.054v53.2h53.2z"/></g><clipPath id="ak"><path transform="matrix(1 0 0 -1 -180.18 426.87)" d="M193.342 188.757h16.665v15.91h-16.665z"/></clipPath><g clip-path="url(#ak)"><symbol id="al"><path d="M.684.653H.477V.637C.52.635.538.622.538.603.538.591.531.576.517.56L.372.393.313.54a.162.162 0 0 0-.016.056c0 .025.016.034.071.041v.016H.105V.637C.163.632.181.616.2.568L.303.313.22.216C.083.056.056.026 0 .016V0h.213v.016C.165.016.147.027.147.049c0 .014.009.032.023.048l.151.172.067-.165A.158.158 0 0 0 .402.053C.402.029.385.017.325.016V0h.271v.016C.528.024.515.033.491.093L.39.348l.169.194C.609.6.641.623.684.637v.016z"/></symbol><use xlink:href="#al" transform="matrix(24.36405 0 0 -24.36405 13.162 238.113)"/></g><clipPath id="am"><path transform="matrix(1 0 0 -1 -180.18 426.87)" d="M220.412 188.757h16.666v15.91h-16.666z"/></clipPath><g clip-path="url(#am)"><use xlink:href="#al" transform="matrix(24.36405 0 0 -24.36405 40.232 238.113)"/></g><clipPath id="an"><path transform="matrix(1 0 0 -1 -180.18 426.87)" d="M193.342 162.63h16.665v15.91h-16.665z"/></clipPath><g clip-path="url(#an)"><use xlink:href="#al" transform="matrix(24.36405 0 0 -24.36405 13.162 264.24)"/></g><clipPath id="ao"><path transform="matrix(1 0 0 -1 -180.18 426.87)" d="M220.412 162.63h16.666v15.91h-16.666z"/></clipPath><g clip-path="url(#ao)"><use xlink:href="#al" transform="matrix(24.36405 0 0 -24.36405 40.232 264.24)"/></g><clipPath id="ap"><path transform="matrix(1 0 0 -1 -180.18 426.87)" d="M194.993 397.586h14.91v15.91h-14.91z"/></clipPath><g clip-path="url(#ap)"><symbol id="aq"><path d="M.612.639v.014H.126L.081.506.1.501C.127.553.135.569.166.59c.03.02.078.027.142.027h.171L0 .014V0h.505l.054.169L.54.172A.283.283 0 0 0 .463.068C.425.04.377.036.29.036H.129l.483.603z"/></symbol><use xlink:href="#aq" transform="matrix(24.36405 0 0 -24.36405 14.813 29.284)"/></g><clipPath id="ar"><path transform="matrix(1 0 0 -1 -180.18 426.87)" d="M222.063 397.586h14.91v15.91h-14.91z"/></clipPath><g clip-path="url(#ar)"><use xlink:href="#aq" transform="matrix(24.36405 0 0 -24.36405 41.883 29.284)"/></g><clipPath id="as"><path transform="matrix(1 0 0 -1 -180.18 426.87)" d="M194.993 371.458h14.91v15.91h-14.91z"/></clipPath><g clip-path="url(#as)"><use xlink:href="#aq" transform="matrix(24.36405 0 0 -24.36405 14.813 55.412)"/></g><clipPath id="at"><path transform="matrix(1 0 0 -1 -180.18 426.87)" d="M222.063 371.458h14.91v15.91h-14.91z"/></clipPath><g clip-path="url(#at)"><use xlink:href="#aq" transform="matrix(24.36405 0 0 -24.36405 41.883 55.412)"/></g><clipPath id="au"><path transform="matrix(1 0 0 -1 -180.18 426.87)" d="M187.3 364.435h57.067v57.066H187.3z"/></clipPath><g clip-path="url(#au)"><path stroke-width="2.32032" fill="none" stroke="#5e5e5e" d="M62.253 7.302H9.054v53.2h53.2z"/></g></g></g></svg>