<svg xmlns="http://www.w3.org/2000/svg" width="947.455" height="445.04" viewBox="0 0 710.591 333.78"><clipPath id="a"><path transform="matrix(1 0 0 -1 -3.489 456.159)" d="M0 9h792v594H0z"/></clipPath><g clip-path="url(#a)"><path d="M-3.489-146.841h792v594h-792z" fill="#fff"/><clipPath id="b"><path transform="matrix(1 0 0 -1 -3.489 456.159)" d="M300.54 339.957h57.065v57.066H300.54z"/></clipPath><g opacity=".252" clip-path="url(#b)"><clipPath id="c"><path transform="matrix(1 0 0 -1 -3.489 456.159)" d="M297 337h64v63h-64z"/></clipPath><g clip-path="url(#c)"><clipPath id="d"><path transform="matrix(1 0 0 -1 -3.489 456.159)" d="M300 339h58v59h-58z"/></clipPath><g clip-path="url(#d)"><path d="M298.984 114.268h53.199V61.07h-53.2z" fill="#929292" fill-opacity=".506"/><path stroke-width="2.32032" fill="none" stroke="#5e5e5e" d="M352.183 61.07h-53.199v53.198h53.199z"/></g></g></g><clipPath id="e"><path transform="matrix(1 0 0 -1 -3.489 456.159)" d="M247.34 286.758h57.067v57.066H247.34z"/></clipPath><g opacity=".252" clip-path="url(#e)"><clipPath id="f"><path transform="matrix(1 0 0 -1 -3.489 456.159)" d="M244 284h64v63h-64z"/></clipPath><g clip-path="url(#f)"><clipPath id="g"><path transform="matrix(1 0 0 -1 -3.489 456.159)" d="M247 286h58v58h-58z"/></clipPath><g clip-path="url(#g)"><path d="M245.785 167.467h53.199v-53.199h-53.199z" fill="#929292" fill-opacity=".506"/><path stroke-width="2.32032" fill="none" stroke="#5e5e5e" d="M298.984 114.268h-53.199v53.2h53.199z"/></g></g></g><clipPath id="h"><path transform="matrix(1 0 0 -1 -3.489 456.159)" d="M247.208 393.111h57.208V421.2h-57.208z"/></clipPath><g opacity=".252" clip-path="url(#h)"><clipPath id="i"><path transform="matrix(1 0 0 -1 -3.489 456.159)" d="M244 390h64v34h-64z"/></clipPath><g clip-path="url(#i)"><clipPath id="j"><path transform="matrix(1 0 0 -1 -3.489 456.159)" d="M247 393h58v29h-58z"/></clipPath><g clip-path="url(#j)"><path d="m298.888 61.111-53.125-.116c1.254-13.698 12.85-24.17 26.699-24.1 13.787.068 25.247 10.572 26.426 24.216zm0 0" fill="#929292" fill-opacity=".506"/><path stroke-width="2.32032" fill="none" stroke="#5e5e5e" d="m298.888 61.111-53.125-.116c1.254-13.698 12.851-24.17 26.699-24.1 13.787.068 25.247 10.572 26.426 24.216zm0 0"/></g></g></g><clipPath id="k"><path transform="matrix(1 0 0 -1 -3.489 456.159)" d="M247.367 342.086v52.809h3.867v-52.81z"/></clipPath><g clip-path="url(#k)"><clipPath id="l"><path transform="matrix(1 0 0 -1 -3.489 456.159)" d="M0 9h792v594H0z"/></clipPath><g opacity=".252" clip-path="url(#l)"><clipPath id="m"><path transform="matrix(1 0 0 -1 -3.489 456.159)" d="M244 338h10v61h-10z"/></clipPath><g clip-path="url(#m)"><clipPath id="n"><path transform="matrix(1 0 0 -1 -3.489 456.159)" d="M247 342h5v53h-5z"/></clipPath><g clip-path="url(#n)"><path stroke-width="2.32032" fill="none" stroke="#5e5e5e" d="M245.812 113.3V62.038"/></g></g></g></g><clipPath id="o"><path transform="matrix(1 0 0 -1 -3.489 456.159)" d="M461.272 288.887v52.809h3.868v-52.81z"/></clipPath><g clip-path="url(#o)"><clipPath id="p"><path transform="matrix(1 0 0 -1 -3.489 456.159)" d="M0 9h792v594H0z"/></clipPath><g opacity=".252" clip-path="url(#p)"><clipPath id="q"><path transform="matrix(1 0 0 -1 -3.489 456.159)" d="M458 285h10v61h-10z"/></clipPath><g clip-path="url(#q)"><clipPath id="r"><path transform="matrix(1 0 0 -1 -3.489 456.159)" d="M461 288h5v54h-5z"/></clipPath><g clip-path="url(#r)"><path stroke-width="2.32032" fill="none" stroke="#5e5e5e" d="M459.717 166.499v-51.262"/></g></g></g></g><clipPath id="s"><path transform="matrix(1 0 0 -1 -3.489 456.159)" d="M355.489 393.111h57.208V421.2h-57.208z"/></clipPath><g opacity=".252" clip-path="url(#s)"><clipPath id="t"><path transform="matrix(1 0 0 -1 -3.489 456.159)" d="M352 390h64v34h-64z"/></clipPath><g clip-path="url(#t)"><clipPath id="u"><path transform="matrix(1 0 0 -1 -3.489 456.159)" d="M355 393h58v29h-58z"/></clipPath><g clip-path="url(#u)"><path d="m407.17 61.111-53.125-.116c1.253-13.698 12.85-24.17 26.698-24.1 13.787.068 25.247 10.572 26.426 24.216zm0 0" fill="#929292" fill-opacity=".506"/><path stroke-width="2.32032" fill="none" stroke="#5e5e5e" d="m407.17 61.111-53.125-.116c1.253-13.698 12.85-24.17 26.698-24.1 13.787.068 25.247 10.572 26.426 24.216zm0 0"/></g></g></g><clipPath id="v"><path transform="matrix(1 0 0 -1 -3.489 456.159)" d="M408.047 339.957h57.066v57.066h-57.066z"/></clipPath><g opacity=".252" clip-path="url(#v)"><clipPath id="w"><path transform="matrix(1 0 0 -1 -3.489 456.159)" d="M405 337h63v63h-63z"/></clipPath><g clip-path="url(#w)"><clipPath id="x"><path transform="matrix(1 0 0 -1 -3.489 456.159)" d="M408 339h58v59h-58z"/></clipPath><g clip-path="url(#x)"><path d="M406.492 114.268h53.199V61.07h-53.2z" fill="#929292" fill-opacity=".506"/><path stroke-width="2.32032" fill="none" stroke="#5e5e5e" d="M459.69 61.07h-53.198v53.198h53.199z"/></g></g></g><clipPath id="y"><path transform="matrix(1 0 0 -1 -3.489 456.159)" d="M354.075 286.758h57.066v57.066h-57.066z"/></clipPath><g opacity=".252" clip-path="url(#y)"><clipPath id="z"><path transform="matrix(1 0 0 -1 -3.489 456.159)" d="M351 284h63v63h-63z"/></clipPath><g clip-path="url(#z)"><clipPath id="A"><path transform="matrix(1 0 0 -1 -3.489 456.159)" d="M354 286h58v58h-58z"/></clipPath><g clip-path="url(#A)"><path d="M352.52 167.467h53.198v-53.199H352.52z" fill="#929292" fill-opacity=".506"/><path stroke-width="2.32032" fill="none" stroke="#5e5e5e" d="M405.718 114.268H352.52v53.2h53.198z"/></g></g></g><clipPath id="B"><path transform="matrix(1 0 0 -1 -3.489 456.159)" d="M300.54 233.223h57.065v57.066H300.54z"/></clipPath><g opacity=".252" clip-path="url(#B)"><clipPath id="C"><path transform="matrix(1 0 0 -1 -3.489 456.159)" d="M297 230h64v63h-64z"/></clipPath><g clip-path="url(#C)"><clipPath id="D"><path transform="matrix(1 0 0 -1 -3.489 456.159)" d="M300 233h58v58h-58z"/></clipPath><g clip-path="url(#D)"><path d="M298.984 221.003h53.199v-53.2h-53.2z" fill="#929292" fill-opacity=".506"/><path stroke-width="2.32032" fill="none" stroke="#5e5e5e" d="M352.183 167.804h-53.199v53.199h53.199z"/></g></g></g><clipPath id="E"><path transform="matrix(1 0 0 -1 -3.489 456.159)" d="M247.34 180.024h57.067v57.066H247.34z"/></clipPath><g opacity=".252" clip-path="url(#E)"><clipPath id="F"><path transform="matrix(1 0 0 -1 -3.489 456.159)" d="M244 177h64v63h-64z"/></clipPath><g clip-path="url(#F)"><clipPath id="G"><path transform="matrix(1 0 0 -1 -3.489 456.159)" d="M247 180h58v58h-58z"/></clipPath><g clip-path="url(#G)"><path d="M245.785 274.202h53.199v-53.2h-53.199z" fill="#929292" fill-opacity=".506"/><path stroke-width="2.32032" fill="none" stroke="#5e5e5e" d="M298.984 221.003h-53.199v53.199h53.199z"/></g></g></g><clipPath id="H"><path transform="matrix(1 0 0 -1 -3.489 456.159)" d="M357.614 155.91h-57.207v28.087h57.207z"/></clipPath><g clip-path="url(#H)"><clipPath id="I"><path transform="matrix(1 0 0 -1 -3.489 456.159)" d="M0 9h792v594H0z"/></clipPath><g opacity=".252" clip-path="url(#I)"><clipPath id="J"><path transform="matrix(1 0 0 -1 -3.489 456.159)" d="M297 153h64v34h-64z"/></clipPath><g clip-path="url(#J)"><clipPath id="K"><path transform="matrix(1 0 0 -1 -3.489 456.159)" d="M300 155h58v29h-58z"/></clipPath><g clip-path="url(#K)"><path d="m352.087 274.099-53.125.116c1.254 13.698 12.85 24.17 26.698 24.1 13.788-.069 25.247-10.572 26.427-24.216zm0 0" fill="#929292" fill-opacity=".506"/><path stroke-width="2.32032" fill="none" stroke="#5e5e5e" d="m352.087 274.098-53.125.117c1.254 13.698 12.85 24.17 26.698 24.1 13.788-.069 25.247-10.572 26.427-24.217zm0 0"/></g></g></g></g><clipPath id="L"><path transform="matrix(1 0 0 -1 -3.489 456.159)" d="M461.272 182.152v52.81h3.868v-52.81z"/></clipPath><g clip-path="url(#L)"><clipPath id="M"><path transform="matrix(1 0 0 -1 -3.489 456.159)" d="M0 9h792v594H0z"/></clipPath><g opacity=".252" clip-path="url(#M)"><clipPath id="N"><path transform="matrix(1 0 0 -1 -3.489 456.159)" d="M458 178h10v61h-10z"/></clipPath><g clip-path="url(#N)"><clipPath id="O"><path transform="matrix(1 0 0 -1 -3.489 456.159)" d="M461 182h5v53h-5z"/></clipPath><g clip-path="url(#O)"><path stroke-width="2.32032" fill="none" stroke="#5e5e5e" d="M459.717 273.233v-51.262"/></g></g></g></g><clipPath id="P"><path transform="matrix(1 0 0 -1 -3.489 456.159)" d="M408.047 233.223h57.066v57.066h-57.066z"/></clipPath><g opacity=".252" clip-path="url(#P)"><clipPath id="Q"><path transform="matrix(1 0 0 -1 -3.489 456.159)" d="M405 230h63v63h-63z"/></clipPath><g clip-path="url(#Q)"><clipPath id="R"><path transform="matrix(1 0 0 -1 -3.489 456.159)" d="M408 233h58v58h-58z"/></clipPath><g clip-path="url(#R)"><path d="M406.492 221.003h53.199v-53.2h-53.2z" fill="#929292" fill-opacity=".506"/><path stroke-width="2.32032" fill="none" stroke="#5e5e5e" d="M459.69 167.804h-53.198v53.199h53.199z"/></g></g></g><clipPath id="S"><path transform="matrix(1 0 0 -1 -3.489 456.159)" d="M354.075 180.024h57.066v57.066h-57.066z"/></clipPath><g opacity=".252" clip-path="url(#S)"><clipPath id="T"><path transform="matrix(1 0 0 -1 -3.489 456.159)" d="M351 177h63v63h-63z"/></clipPath><g clip-path="url(#T)"><clipPath id="U"><path transform="matrix(1 0 0 -1 -3.489 456.159)" d="M354 180h58v58h-58z"/></clipPath><g clip-path="url(#U)"><path d="M352.52 274.202h53.198v-53.2H352.52z" fill="#929292" fill-opacity=".506"/><path stroke-width="2.32032" fill="none" stroke="#5e5e5e" d="M405.718 221.003H352.52v53.199h53.198z"/></g></g></g><clipPath id="V"><path transform="matrix(1 0 0 -1 -3.489 456.159)" d="M247.367 235.351v52.81h3.867v-52.81z"/></clipPath><g clip-path="url(#V)"><clipPath id="W"><path transform="matrix(1 0 0 -1 -3.489 456.159)" d="M0 9h792v594H0z"/></clipPath><g opacity=".252" clip-path="url(#W)"><clipPath id="X"><path transform="matrix(1 0 0 -1 -3.489 456.159)" d="M244 231h10v62h-10z"/></clipPath><g clip-path="url(#X)"><clipPath id="Y"><path transform="matrix(1 0 0 -1 -3.489 456.159)" d="M247 235h5v54h-5z"/></clipPath><g clip-path="url(#Y)"><path stroke-width="2.32032" fill="none" stroke="#5e5e5e" d="M245.812 220.034v-51.262"/></g></g></g></g><clipPath id="Z"><path transform="matrix(1 0 0 -1 -3.489 456.159)" d="M465.896 155.91h-57.208v28.087h57.208z"/></clipPath><g clip-path="url(#Z)"><clipPath id="aa"><path transform="matrix(1 0 0 -1 -3.489 456.159)" d="M0 9h792v594H0z"/></clipPath><g opacity=".252" clip-path="url(#aa)"><clipPath id="ab"><path transform="matrix(1 0 0 -1 -3.489 456.159)" d="M406 153h63v34h-63z"/></clipPath><g clip-path="url(#ab)"><clipPath id="ac"><path transform="matrix(1 0 0 -1 -3.489 456.159)" d="M408 155h58v29h-58z"/></clipPath><g clip-path="url(#ac)"><path d="m460.368 274.099-53.125.116c1.254 13.698 12.851 24.17 26.699 24.1 13.787-.069 25.247-10.572 26.426-24.216zm0 0" fill="#929292" fill-opacity=".506"/><path stroke-width="2.32032" fill="none" stroke="#5e5e5e" d="m460.368 274.098-53.125.117c1.254 13.698 12.851 24.17 26.699 24.1 13.787-.069 25.247-10.572 26.426-24.217zm0 0"/></g></g></g></g><clipPath id="ad"><path transform="matrix(1 0 0 -1 -3.489 456.159)" d="M293.133 332.64h18.562v18.563h-18.562z"/></clipPath><g clip-path="url(#ad)"><path d="M304.394 108.769a7.734 7.734 0 1 1-10.938 10.938 7.734 7.734 0 0 1 10.938-10.938zm0 0" fill="#cefeff"/><path stroke-width="1.54688" fill="none" stroke="#000" d="M304.394 108.769a7.734 7.734 0 1 1-10.938 10.938 7.734 7.734 0 0 1 10.938-10.938zm0 0"/></g><clipPath id="ae"><path transform="matrix(1 0 0 -1 -3.489 456.159)" d="M346.5 279.273h18.563v18.562H346.5z"/></clipPath><g clip-path="url(#ae)"><path d="M357.761 162.136a7.735 7.735 0 1 1-10.938 10.938 7.735 7.735 0 0 1 10.938-10.938zm0 0" fill="#cefeff"/><path stroke-width="1.54688" fill="none" stroke="#000" d="M357.761 162.136a7.734 7.734 0 1 1-10.938 10.938 7.734 7.734 0 0 1 10.938-10.938zm0 0"/></g><clipPath id="af"><path transform="matrix(1 0 0 -1 -3.489 456.159)" d="M346.5 386.007h18.563v18.563H346.5z"/></clipPath><g clip-path="url(#af)"><path d="M357.761 55.401a7.734 7.734 0 1 1-10.938 10.938 7.734 7.734 0 0 1 10.938-10.938zm0 0" fill="#cefeff"/><path stroke-width="1.54688" fill="none" stroke="#000" d="M357.761 55.401a7.734 7.734 0 1 1-10.938 10.939A7.734 7.734 0 0 1 357.761 55.4zm0 0"/></g><clipPath id="ag"><path transform="matrix(1 0 0 -1 -3.489 456.159)" d="M346.5 332.64h18.563v18.563H346.5z"/></clipPath><g clip-path="url(#ag)"><path d="M357.761 108.769a7.734 7.734 0 1 1-10.938 10.938 7.734 7.734 0 0 1 10.938-10.938zm0 0" fill="#cefeff"/><path stroke-width="1.54688" fill="none" stroke="#000" d="M357.761 108.769a7.734 7.734 0 1 1-10.938 10.938 7.734 7.734 0 0 1 10.938-10.938zm0 0"/></g><clipPath id="ah"><path transform="matrix(1 0 0 -1 -3.489 456.159)" d="M293.133 386.007h18.562v18.563h-18.562z"/></clipPath><g clip-path="url(#ah)"><path d="M304.394 55.401a7.734 7.734 0 1 1-10.938 10.938 7.734 7.734 0 0 1 10.938-10.938zm0 0" fill="#cefeff"/><path stroke-width="1.54688" fill="none" stroke="#000" d="M304.394 55.401a7.734 7.734 0 1 1-10.938 10.939A7.734 7.734 0 0 1 304.394 55.4zm0 0"/></g><clipPath id="ai"><path transform="matrix(1 0 0 -1 -3.489 456.159)" d="M293.133 279.273h18.562v18.562h-18.562z"/></clipPath><g clip-path="url(#ai)"><path d="M304.394 162.136a7.734 7.734 0 1 1-10.938 10.938 7.734 7.734 0 0 1 10.938-10.938zm0 0" fill="#cefeff"/><path stroke-width="1.54688" fill="none" stroke="#000" d="M304.394 162.136a7.734 7.734 0 1 1-10.938 10.938 7.734 7.734 0 0 1 10.938-10.938zm0 0"/></g><clipPath id="aj"><path transform="matrix(1 0 0 -1 -3.489 456.159)" d="M399.867 279.273h18.563v18.562h-18.563z"/></clipPath><g clip-path="url(#aj)"><path d="M411.129 162.136a7.735 7.735 0 1 1-10.939 10.938 7.735 7.735 0 0 1 10.939-10.938zm0 0" fill="#cefeff"/><path stroke-width="1.54688" fill="none" stroke="#000" d="M411.129 162.136a7.734 7.734 0 1 1-10.939 10.938 7.734 7.734 0 0 1 10.939-10.938zm0 0"/></g><clipPath id="ak"><path transform="matrix(1 0 0 -1 -3.489 456.159)" d="M399.867 386.007h18.563v18.563h-18.563z"/></clipPath><g clip-path="url(#ak)"><path d="M411.129 55.401A7.734 7.734 0 1 1 400.19 66.34a7.734 7.734 0 0 1 10.939-10.938zm0 0" fill="#cefeff"/><path stroke-width="1.54688" fill="none" stroke="#000" d="M411.129 55.401A7.734 7.734 0 1 1 400.19 66.34 7.734 7.734 0 0 1 411.13 55.4zm0 0"/></g><clipPath id="al"><path transform="matrix(1 0 0 -1 -3.489 456.159)" d="M399.867 332.64h18.563v18.563h-18.563z"/></clipPath><g clip-path="url(#al)"><path d="M411.129 108.769a7.734 7.734 0 1 1-10.939 10.938 7.734 7.734 0 0 1 10.939-10.938zm0 0" fill="#cefeff"/><path stroke-width="1.54688" fill="none" stroke="#000" d="M411.129 108.769a7.734 7.734 0 1 1-10.939 10.938 7.734 7.734 0 0 1 10.939-10.938zm0 0"/></g><clipPath id="am"><path transform="matrix(1 0 0 -1 -3.489 456.159)" d="M293.133 225.906h18.562v18.562h-18.562z"/></clipPath><g clip-path="url(#am)"><path d="M304.394 215.503a7.734 7.734 0 1 1-10.938 10.938 7.734 7.734 0 0 1 10.938-10.938zm0 0" fill="#cefeff"/><path stroke-width="1.54688" fill="none" stroke="#000" d="M304.394 215.503a7.734 7.734 0 1 1-10.938 10.938 7.734 7.734 0 0 1 10.938-10.938zm0 0"/></g><clipPath id="an"><path transform="matrix(1 0 0 -1 -3.489 456.159)" d="M346.5 172.538h18.563v18.563H346.5z"/></clipPath><g clip-path="url(#an)"><path d="M357.761 268.87a7.735 7.735 0 1 1-10.938 10.938 7.735 7.735 0 0 1 10.938-10.938zm0 0" fill="#cefeff"/><path stroke-width="1.54688" fill="none" stroke="#000" d="M357.761 268.87a7.734 7.734 0 1 1-10.938 10.938 7.734 7.734 0 0 1 10.938-10.938zm0 0"/></g><clipPath id="ao"><path transform="matrix(1 0 0 -1 -3.489 456.159)" d="M346.5 225.906h18.563v18.562H346.5z"/></clipPath><g clip-path="url(#ao)"><path d="M357.761 215.503a7.735 7.735 0 1 1-10.938 10.938 7.735 7.735 0 0 1 10.938-10.938zm0 0" fill="#cefeff"/><path stroke-width="1.54688" fill="none" stroke="#000" d="M357.761 215.503a7.734 7.734 0 1 1-10.938 10.938 7.734 7.734 0 0 1 10.938-10.938zm0 0"/></g><clipPath id="ap"><path transform="matrix(1 0 0 -1 -3.489 456.159)" d="M293.133 172.538h18.562v18.563h-18.562z"/></clipPath><g clip-path="url(#ap)"><path d="M304.394 268.87a7.734 7.734 0 1 1-10.938 10.938 7.734 7.734 0 0 1 10.938-10.938zm0 0" fill="#cefeff"/><path stroke-width="1.54688" fill="none" stroke="#000" d="M304.394 268.87a7.734 7.734 0 1 1-10.938 10.938 7.734 7.734 0 0 1 10.938-10.938zm0 0"/></g><clipPath id="aq"><path transform="matrix(1 0 0 -1 -3.489 456.159)" d="M399.867 172.538h18.563v18.563h-18.563z"/></clipPath><g clip-path="url(#aq)"><path d="M411.129 268.87a7.735 7.735 0 1 1-10.939 10.938 7.735 7.735 0 0 1 10.939-10.938zm0 0" fill="#cefeff"/><path stroke-width="1.54688" fill="none" stroke="#000" d="M411.129 268.87a7.734 7.734 0 1 1-10.939 10.938 7.734 7.734 0 0 1 10.939-10.938zm0 0"/></g><clipPath id="ar"><path transform="matrix(1 0 0 -1 -3.489 456.159)" d="M399.867 225.906h18.563v18.562h-18.563z"/></clipPath><g clip-path="url(#ar)"><path d="M411.129 215.503a7.735 7.735 0 1 1-10.939 10.938 7.735 7.735 0 0 1 10.939-10.938zm0 0" fill="#cefeff"/><path stroke-width="1.54688" fill="none" stroke="#000" d="M411.129 215.503a7.734 7.734 0 1 1-10.939 10.938 7.734 7.734 0 0 1 10.939-10.938zm0 0"/></g><clipPath id="as"><path transform="matrix(1 0 0 -1 -3.489 456.159)" d="M87.07 339.957h57.067v57.066H87.07z"/></clipPath><g clip-path="url(#as)"><path d="M85.515 114.268h53.2V61.07h-53.2z" fill="#929292" fill-opacity=".506"/><path stroke-width="2.32032" fill="none" stroke="#5e5e5e" d="M138.714 61.07H85.515v53.198h53.199z"/></g><clipPath id="at"><path transform="matrix(1 0 0 -1 -3.489 456.159)" d="M33.872 286.758h57.066v57.066H33.872z"/></clipPath><g clip-path="url(#at)"><path d="M32.316 167.467h53.2v-53.199h-53.2z" fill="#929292" fill-opacity=".506"/><path stroke-width="2.32032" fill="none" stroke="#5e5e5e" d="M85.515 114.268H32.316v53.2h53.2z"/></g><clipPath id="au"><path transform="matrix(1 0 0 -1 -3.489 456.159)" d="M33.739 393.111h57.208V421.2H33.739z"/></clipPath><g clip-path="url(#au)"><path d="m85.42 61.111-53.125-.116c1.253-13.698 12.85-24.17 26.698-24.1 13.787.068 25.247 10.572 26.426 24.216zm0 0" fill="#929292" fill-opacity=".506"/><path stroke-width="2.32032" fill="none" stroke="#5e5e5e" d="m85.42 61.111-53.125-.116c1.253-13.698 12.85-24.17 26.698-24.1 13.787.068 25.247 10.572 26.426 24.216zm0 0"/></g><clipPath id="av"><path transform="matrix(1 0 0 -1 -3.489 456.159)" d="M9.668 286.72v57.209h28.087V286.72z"/></clipPath><g clip-path="url(#av)"><clipPath id="aw"><path transform="matrix(1 0 0 -1 -3.489 456.159)" d="M0 9h792v594H0z"/></clipPath><g clip-path="url(#aw)"><path stroke-width="2.32032" fill="none" stroke="#5e5e5e" d="m32.33 167.4-.116-53.125c-13.698 1.253-24.17 12.85-24.101 26.698.069 13.787 10.573 25.247 24.217 26.426zm0 0"/></g></g><clipPath id="ax"><path transform="matrix(1 0 0 -1 -3.489 456.159)" d="M33.898 342.086v52.809h3.867v-52.81z"/></clipPath><g clip-path="url(#ax)"><clipPath id="ay"><path transform="matrix(1 0 0 -1 -3.489 456.159)" d="M0 9h792v594H0z"/></clipPath><g clip-path="url(#ay)"><path stroke-width="2.32032" fill="none" stroke="#5e5e5e" d="M32.343 113.3V62.038"/></g></g><clipPath id="az"><path transform="matrix(1 0 0 -1 -3.489 456.159)" d="M247.804 288.887v52.809h3.867v-52.81z"/></clipPath><g clip-path="url(#az)"><clipPath id="aA"><path transform="matrix(1 0 0 -1 -3.489 456.159)" d="M0 9h792v594H0z"/></clipPath><g clip-path="url(#aA)"><path stroke-width="2.32032" fill="none" stroke="#5e5e5e" d="M246.248 166.499v-51.262"/></g></g><clipPath id="aB"><path transform="matrix(1 0 0 -1 -3.489 456.159)" d="M142.02 393.111h57.208V421.2H142.02z"/></clipPath><g clip-path="url(#aB)"><path d="m193.7 61.111-53.124-.116c1.253-13.698 12.85-24.17 26.698-24.1 13.787.068 25.247 10.572 26.427 24.216zm0 0" fill="#929292" fill-opacity=".506"/><path stroke-width="2.32032" fill="none" stroke="#5e5e5e" d="m193.7 61.111-53.124-.116c1.253-13.698 12.85-24.17 26.698-24.1 13.787.068 25.247 10.572 26.427 24.216zm0 0"/></g><clipPath id="aC"><path transform="matrix(1 0 0 -1 -3.489 456.159)" d="M194.578 339.957h57.066v57.066h-57.066z"/></clipPath><g clip-path="url(#aC)"><path d="M193.023 114.268h53.199V61.07h-53.199z" fill="#929292" fill-opacity=".506"/><path stroke-width="2.32032" fill="none" stroke="#5e5e5e" d="M246.222 61.07h-53.199v53.198h53.199z"/></g><clipPath id="aD"><path transform="matrix(1 0 0 -1 -3.489 456.159)" d="M275.73 339.92v57.208h-28.087V339.92z"/></clipPath><g clip-path="url(#aD)"><clipPath id="aE"><path transform="matrix(1 0 0 -1 -3.489 456.159)" d="M0 9h792v594H0z"/></clipPath><g clip-path="url(#aE)"><path stroke-width="2.32032" fill="none" stroke="#5e5e5e" d="m246.09 114.2.117-53.124c13.698 1.253 24.17 12.85 24.1 26.698-.068 13.787-10.572 25.247-24.216 26.427zm0 0"/></g></g><clipPath id="aF"><path transform="matrix(1 0 0 -1 -3.489 456.159)" d="M140.606 286.758h57.066v57.066h-57.066z"/></clipPath><g clip-path="url(#aF)"><path d="M139.05 167.467h53.2v-53.199h-53.2z" fill="#929292" fill-opacity=".506"/><path stroke-width="2.32032" fill="none" stroke="#5e5e5e" d="M192.25 114.268h-53.2v53.2h53.2z"/></g><clipPath id="aG"><path transform="matrix(1 0 0 -1 -3.489 456.159)" d="M87.07 233.223h57.067v57.066H87.07z"/></clipPath><g clip-path="url(#aG)"><path d="M85.515 221.003h53.2v-53.2h-53.2z" fill="#929292" fill-opacity=".506"/><path stroke-width="2.32032" fill="none" stroke="#5e5e5e" d="M138.714 167.804H85.515v53.199h53.199z"/></g><clipPath id="aH"><path transform="matrix(1 0 0 -1 -3.489 456.159)" d="M33.872 180.024h57.066v57.066H33.872z"/></clipPath><g clip-path="url(#aH)"><path d="M32.316 274.202h53.2v-53.2h-53.2z" fill="#929292" fill-opacity=".506"/><path stroke-width="2.32032" fill="none" stroke="#5e5e5e" d="M85.515 221.003H32.316v53.199h53.2z"/></g><clipPath id="aI"><path transform="matrix(1 0 0 -1 -3.489 456.159)" d="M144.146 155.91H86.938v28.087h57.208z"/></clipPath><g clip-path="url(#aI)"><clipPath id="aJ"><path transform="matrix(1 0 0 -1 -3.489 456.159)" d="M0 9h792v594H0z"/></clipPath><g clip-path="url(#aJ)"><path d="m138.618 274.099-53.125.116c1.254 13.698 12.851 24.17 26.699 24.1 13.787-.069 25.247-10.572 26.426-24.216zm0 0" fill="#929292" fill-opacity=".506"/><path stroke-width="2.32032" fill="none" stroke="#5e5e5e" d="m138.618 274.098-53.125.117c1.254 13.698 12.851 24.17 26.699 24.1 13.787-.069 25.247-10.572 26.426-24.217zm0 0"/></g></g><clipPath id="aK"><path transform="matrix(1 0 0 -1 -3.489 456.159)" d="M9.668 179.987v57.207h28.087v-57.207z"/></clipPath><g clip-path="url(#aK)"><clipPath id="aL"><path transform="matrix(1 0 0 -1 -3.489 456.159)" d="M0 9h792v594H0z"/></clipPath><g clip-path="url(#aL)"><path stroke-width="2.32032" fill="none" stroke="#5e5e5e" d="m32.33 274.134-.116-53.125c-13.698 1.254-24.17 12.85-24.101 26.698.069 13.788 10.573 25.247 24.217 26.427zm0 0"/></g></g><clipPath id="aM"><path transform="matrix(1 0 0 -1 -3.489 456.159)" d="M247.804 182.152v52.81h3.867v-52.81z"/></clipPath><g clip-path="url(#aM)"><clipPath id="aN"><path transform="matrix(1 0 0 -1 -3.489 456.159)" d="M0 9h792v594H0z"/></clipPath><g clip-path="url(#aN)"><path stroke-width="2.32032" fill="none" stroke="#5e5e5e" d="M246.248 273.233v-51.262"/></g></g><clipPath id="aO"><path transform="matrix(1 0 0 -1 -3.489 456.159)" d="M194.578 233.223h57.066v57.066h-57.066z"/></clipPath><g clip-path="url(#aO)"><path d="M193.023 221.003h53.199v-53.2h-53.199z" fill="#929292" fill-opacity=".506"/><path stroke-width="2.32032" fill="none" stroke="#5e5e5e" d="M246.222 167.804h-53.199v53.199h53.199z"/></g><clipPath id="aP"><path transform="matrix(1 0 0 -1 -3.489 456.159)" d="M275.73 233.185v57.208h-28.087v-57.208z"/></clipPath><g clip-path="url(#aP)"><clipPath id="aQ"><path transform="matrix(1 0 0 -1 -3.489 456.159)" d="M0 9h792v594H0z"/></clipPath><g clip-path="url(#aQ)"><path stroke-width="2.32032" fill="none" stroke="#5e5e5e" d="m246.09 220.935.117-53.125c13.698 1.254 24.17 12.85 24.1 26.699-.068 13.787-10.572 25.247-24.216 26.426zm0 0"/></g></g><clipPath id="aR"><path transform="matrix(1 0 0 -1 -3.489 456.159)" d="M140.606 180.024h57.066v57.066h-57.066z"/></clipPath><g clip-path="url(#aR)"><path d="M139.05 274.202h53.2v-53.2h-53.2z" fill="#929292" fill-opacity=".506"/><path stroke-width="2.32032" fill="none" stroke="#5e5e5e" d="M192.25 221.003h-53.2v53.199h53.2z"/></g><clipPath id="aS"><path transform="matrix(1 0 0 -1 -3.489 456.159)" d="M33.898 235.351v52.81h3.867v-52.81z"/></clipPath><g clip-path="url(#aS)"><clipPath id="aT"><path transform="matrix(1 0 0 -1 -3.489 456.159)" d="M0 9h792v594H0z"/></clipPath><g clip-path="url(#aT)"><path stroke-width="2.32032" fill="none" stroke="#5e5e5e" d="M32.343 220.034v-51.262"/></g></g><clipPath id="aU"><path transform="matrix(1 0 0 -1 -3.489 456.159)" d="M252.427 155.91h-57.208v28.087h57.208z"/></clipPath><g clip-path="url(#aU)"><clipPath id="aV"><path transform="matrix(1 0 0 -1 -3.489 456.159)" d="M0 9h792v594H0z"/></clipPath><g clip-path="url(#aV)"><path d="m246.9 274.099-53.125.116c1.253 13.698 12.85 24.17 26.698 24.1 13.787-.069 25.247-10.572 26.426-24.216zm0 0" fill="#929292" fill-opacity=".506"/><path stroke-width="2.32032" fill="none" stroke="#5e5e5e" d="m246.9 274.098-53.125.117c1.253 13.698 12.85 24.17 26.698 24.1 13.787-.069 25.247-10.572 26.426-24.217zm0 0"/></g></g><clipPath id="aW"><path transform="matrix(1 0 0 -1 -3.489 456.159)" d="M26.684 385.664h18.562v18.563H26.684z"/></clipPath><g clip-path="url(#aW)"><path d="M37.945 55.745a7.734 7.734 0 1 1-10.938 10.938 7.734 7.734 0 0 1 10.938-10.938zm0 0" fill="#fff"/><path stroke-width="1.54688" fill="none" stroke="#000" d="M37.945 55.745a7.734 7.734 0 1 1-10.938 10.938 7.734 7.734 0 0 1 10.938-10.938zm0 0"/></g><clipPath id="aX"><path transform="matrix(1 0 0 -1 -3.489 456.159)" d="M79.664 332.64h18.563v18.563H79.664z"/></clipPath><g clip-path="url(#aX)"><path d="M90.925 108.769a7.734 7.734 0 1 1-10.938 10.938 7.734 7.734 0 0 1 10.938-10.938zm0 0" fill="#fff"/><path stroke-width="1.54688" fill="none" stroke="#000" d="M90.925 108.769a7.734 7.734 0 1 1-10.938 10.938 7.734 7.734 0 0 1 10.938-10.938zm0 0"/></g><clipPath id="aY"><path transform="matrix(1 0 0 -1 -3.489 456.159)" d="M133.031 279.273h18.563v18.562H133.03z"/></clipPath><g clip-path="url(#aY)"><path d="M144.293 162.136a7.734 7.734 0 1 1-10.938 10.938 7.734 7.734 0 0 1 10.938-10.938zm0 0" fill="#fff"/><path stroke-width="1.54688" fill="none" stroke="#000" d="M144.293 162.136a7.734 7.734 0 1 1-10.939 10.938 7.734 7.734 0 0 1 10.939-10.938zm0 0"/></g><clipPath id="aZ"><path transform="matrix(1 0 0 -1 -3.489 456.159)" d="M133.031 386.007h18.563v18.563H133.03z"/></clipPath><g clip-path="url(#aZ)"><path d="M144.293 55.401a7.734 7.734 0 1 1-10.938 10.938 7.734 7.734 0 0 1 10.938-10.938zm0 0" fill="#fff"/><path stroke-width="1.54688" fill="none" stroke="#000" d="M144.293 55.401a7.734 7.734 0 1 1-10.939 10.939A7.734 7.734 0 0 1 144.293 55.4zm0 0"/></g><clipPath id="ba"><path transform="matrix(1 0 0 -1 -3.489 456.159)" d="M26.297 279.273h18.562v18.562H26.297z"/></clipPath><g clip-path="url(#ba)"><path d="M37.558 162.136a7.734 7.734 0 1 1-10.938 10.938 7.734 7.734 0 0 1 10.938-10.938zm0 0" fill="#fff"/><path stroke-width="1.54688" fill="none" stroke="#000" d="M37.558 162.136a7.734 7.734 0 1 1-10.938 10.938 7.734 7.734 0 0 1 10.938-10.938zm0 0"/></g><clipPath id="bb"><path transform="matrix(1 0 0 -1 -3.489 456.159)" d="M26.297 332.64h18.562v18.563H26.297z"/></clipPath><g clip-path="url(#bb)"><path d="M37.558 108.769a7.734 7.734 0 1 1-10.938 10.938 7.734 7.734 0 0 1 10.938-10.938zm0 0" fill="#fff"/><path stroke-width="1.54688" fill="none" stroke="#000" d="M37.558 108.769a7.734 7.734 0 1 1-10.938 10.938 7.734 7.734 0 0 1 10.938-10.938zm0 0"/></g><clipPath id="bc"><path transform="matrix(1 0 0 -1 -3.489 456.159)" d="M133.031 332.64h18.563v18.563H133.03z"/></clipPath><g clip-path="url(#bc)"><path d="M144.293 108.769a7.734 7.734 0 1 1-10.938 10.938 7.734 7.734 0 0 1 10.938-10.938zm0 0" fill="#fff"/><path stroke-width="1.54688" fill="none" stroke="#000" d="M144.293 108.769a7.734 7.734 0 1 1-10.939 10.938 7.734 7.734 0 0 1 10.939-10.938zm0 0"/></g><clipPath id="bd"><path transform="matrix(1 0 0 -1 -3.489 456.159)" d="M79.664 386.007h18.563v18.563H79.664z"/></clipPath><g clip-path="url(#bd)"><path d="M90.925 55.401A7.734 7.734 0 1 1 79.987 66.34a7.734 7.734 0 0 1 10.938-10.938zm0 0" fill="#fff"/><path stroke-width="1.54688" fill="none" stroke="#000" d="M90.925 55.401A7.734 7.734 0 1 1 79.987 66.34 7.734 7.734 0 0 1 90.925 55.4zm0 0"/></g><clipPath id="be"><path transform="matrix(1 0 0 -1 -3.489 456.159)" d="M79.664 279.273h18.563v18.562H79.664z"/></clipPath><g clip-path="url(#be)"><path d="M90.925 162.136a7.734 7.734 0 1 1-10.938 10.938 7.734 7.734 0 0 1 10.938-10.938zm0 0" fill="#fff"/><path stroke-width="1.54688" fill="none" stroke="#000" d="M90.925 162.136a7.734 7.734 0 1 1-10.938 10.938 7.734 7.734 0 0 1 10.938-10.938zm0 0"/></g><clipPath id="bf"><path transform="matrix(1 0 0 -1 -3.489 456.159)" d="M186.398 279.273h18.563v18.562h-18.563z"/></clipPath><g clip-path="url(#bf)"><path d="M197.66 162.136a7.734 7.734 0 1 1-10.938 10.938 7.734 7.734 0 0 1 10.938-10.938zm0 0" fill="#fff"/><path stroke-width="1.54688" fill="none" stroke="#000" d="M197.66 162.136a7.734 7.734 0 1 1-10.938 10.938 7.734 7.734 0 0 1 10.938-10.938zm0 0"/></g><clipPath id="bg"><path transform="matrix(1 0 0 -1 -3.489 456.159)" d="M186.398 386.007h18.563v18.563h-18.563z"/></clipPath><g clip-path="url(#bg)"><path d="M197.66 55.401a7.734 7.734 0 1 1-10.938 10.938 7.734 7.734 0 0 1 10.938-10.938zm0 0" fill="#fff"/><path stroke-width="1.54688" fill="none" stroke="#000" d="M197.66 55.401a7.734 7.734 0 1 1-10.938 10.939A7.734 7.734 0 0 1 197.66 55.4zm0 0"/></g><clipPath id="bh"><path transform="matrix(1 0 0 -1 -3.489 456.159)" d="M186.398 332.64h18.563v18.563h-18.563z"/></clipPath><g clip-path="url(#bh)"><path d="M197.66 108.769a7.734 7.734 0 1 1-10.938 10.938 7.734 7.734 0 0 1 10.938-10.938zm0 0" fill="#fff"/><path stroke-width="1.54688" fill="none" stroke="#000" d="M197.66 108.769a7.734 7.734 0 1 1-10.938 10.938 7.734 7.734 0 0 1 10.938-10.938zm0 0"/></g><clipPath id="bi"><path transform="matrix(1 0 0 -1 -3.489 456.159)" d="M240.54 279.273h18.562v18.562h-18.563z"/></clipPath><g clip-path="url(#bi)"><path d="M251.8 162.136a7.734 7.734 0 1 1-10.938 10.938 7.734 7.734 0 0 1 10.938-10.938zm0 0" fill="#fff"/><path stroke-width="1.54688" fill="none" stroke="#000" d="M251.8 162.136a7.734 7.734 0 1 1-10.938 10.938 7.734 7.734 0 0 1 10.938-10.938zm0 0"/></g><clipPath id="bj"><path transform="matrix(1 0 0 -1 -3.489 456.159)" d="M240.54 386.007h18.562v18.563h-18.563z"/></clipPath><g clip-path="url(#bj)"><path d="M251.8 55.401a7.734 7.734 0 1 1-10.937 10.938A7.734 7.734 0 0 1 251.8 55.401zm0 0" fill="#fff"/><path stroke-width="1.54688" fill="none" stroke="#000" d="M251.8 55.401a7.734 7.734 0 1 1-10.938 10.939A7.734 7.734 0 0 1 251.8 55.4zm0 0"/></g><clipPath id="bk"><path transform="matrix(1 0 0 -1 -3.489 456.159)" d="M240.54 332.64h18.562v18.563h-18.563z"/></clipPath><g clip-path="url(#bk)"><path d="M251.8 108.769a7.734 7.734 0 1 1-10.937 10.938 7.734 7.734 0 0 1 10.937-10.938zm0 0" fill="#fff"/><path stroke-width="1.54688" fill="none" stroke="#000" d="M251.8 108.769a7.734 7.734 0 1 1-10.938 10.938 7.734 7.734 0 0 1 10.938-10.938zm0 0"/></g><clipPath id="bl"><path transform="matrix(1 0 0 -1 -3.489 456.159)" d="M79.664 225.906h18.563v18.562H79.664z"/></clipPath><g clip-path="url(#bl)"><path d="M90.925 215.503a7.734 7.734 0 1 1-10.938 10.938 7.734 7.734 0 0 1 10.938-10.938zm0 0" fill="#fff"/><path stroke-width="1.54688" fill="none" stroke="#000" d="M90.925 215.503a7.734 7.734 0 1 1-10.938 10.938 7.734 7.734 0 0 1 10.938-10.938zm0 0"/></g><clipPath id="bm"><path transform="matrix(1 0 0 -1 -3.489 456.159)" d="M133.031 172.538h18.563v18.563H133.03z"/></clipPath><g clip-path="url(#bm)"><path d="M144.293 268.87a7.734 7.734 0 1 1-10.938 10.938 7.734 7.734 0 0 1 10.938-10.938zm0 0" fill="#fff"/><path stroke-width="1.54688" fill="none" stroke="#000" d="M144.293 268.87a7.734 7.734 0 1 1-10.939 10.938 7.734 7.734 0 0 1 10.939-10.938zm0 0"/></g><clipPath id="bn"><path transform="matrix(1 0 0 -1 -3.489 456.159)" d="M26.297 172.538h18.562v18.563H26.297z"/></clipPath><g clip-path="url(#bn)"><path d="M37.558 268.87a7.734 7.734 0 1 1-10.938 10.938 7.734 7.734 0 0 1 10.938-10.938zm0 0" fill="#fff"/><path stroke-width="1.54688" fill="none" stroke="#000" d="M37.558 268.87a7.734 7.734 0 1 1-10.938 10.938 7.734 7.734 0 0 1 10.938-10.938zm0 0"/></g><clipPath id="bo"><path transform="matrix(1 0 0 -1 -3.489 456.159)" d="M26.297 225.906h18.562v18.562H26.297z"/></clipPath><g clip-path="url(#bo)"><path d="M37.558 215.503a7.734 7.734 0 1 1-10.938 10.938 7.734 7.734 0 0 1 10.938-10.938zm0 0" fill="#fff"/><path stroke-width="1.54688" fill="none" stroke="#000" d="M37.558 215.503a7.734 7.734 0 1 1-10.938 10.938 7.734 7.734 0 0 1 10.938-10.938zm0 0"/></g><clipPath id="bp"><path transform="matrix(1 0 0 -1 -3.489 456.159)" d="M133.031 225.906h18.563v18.562H133.03z"/></clipPath><g clip-path="url(#bp)"><path d="M144.293 215.503a7.734 7.734 0 1 1-10.938 10.938 7.734 7.734 0 0 1 10.938-10.938zm0 0" fill="#fff"/><path stroke-width="1.54688" fill="none" stroke="#000" d="M144.293 215.503a7.734 7.734 0 1 1-10.939 10.938 7.734 7.734 0 0 1 10.939-10.938zm0 0"/></g><clipPath id="bq"><path transform="matrix(1 0 0 -1 -3.489 456.159)" d="M79.664 172.538h18.563v18.563H79.664z"/></clipPath><g clip-path="url(#bq)"><path d="M90.925 268.87a7.734 7.734 0 1 1-10.938 10.938 7.734 7.734 0 0 1 10.938-10.938zm0 0" fill="#fff"/><path stroke-width="1.54688" fill="none" stroke="#000" d="M90.925 268.87a7.734 7.734 0 1 1-10.938 10.938 7.734 7.734 0 0 1 10.938-10.938zm0 0"/></g><clipPath id="br"><path transform="matrix(1 0 0 -1 -3.489 456.159)" d="M186.398 172.538h18.563v18.563h-18.563z"/></clipPath><g clip-path="url(#br)"><path d="M197.66 268.87a7.734 7.734 0 1 1-10.938 10.938 7.734 7.734 0 0 1 10.938-10.938zm0 0" fill="#fff"/><path stroke-width="1.54688" fill="none" stroke="#000" d="M197.66 268.87a7.734 7.734 0 1 1-10.938 10.938 7.734 7.734 0 0 1 10.938-10.938zm0 0"/></g><clipPath id="bs"><path transform="matrix(1 0 0 -1 -3.489 456.159)" d="M186.398 225.906h18.563v18.562h-18.563z"/></clipPath><g clip-path="url(#bs)"><path d="M197.66 215.503a7.734 7.734 0 1 1-10.938 10.938 7.734 7.734 0 0 1 10.938-10.938zm0 0" fill="#fff"/><path stroke-width="1.54688" fill="none" stroke="#000" d="M197.66 215.503a7.734 7.734 0 1 1-10.938 10.938 7.734 7.734 0 0 1 10.938-10.938zm0 0"/></g><clipPath id="bt"><path transform="matrix(1 0 0 -1 -3.489 456.159)" d="M240.54 172.538h18.562v18.563h-18.563z"/></clipPath><g clip-path="url(#bt)"><path d="M251.8 268.87a7.734 7.734 0 1 1-10.938 10.938A7.734 7.734 0 0 1 251.8 268.87zm0 0" fill="#fff"/><path stroke-width="1.54688" fill="none" stroke="#000" d="M251.8 268.87a7.734 7.734 0 1 1-10.938 10.938A7.734 7.734 0 0 1 251.8 268.87zm0 0"/></g><clipPath id="bu"><path transform="matrix(1 0 0 -1 -3.489 456.159)" d="M240.54 225.906h18.562v18.562h-18.563z"/></clipPath><g clip-path="url(#bu)"><path d="M251.8 215.503a7.734 7.734 0 1 1-10.938 10.938 7.734 7.734 0 0 1 10.938-10.938zm0 0" fill="#fff"/><path stroke-width="1.54688" fill="none" stroke="#000" d="M251.8 215.503a7.734 7.734 0 1 1-10.938 10.938 7.734 7.734 0 0 1 10.938-10.938zm0 0"/></g><clipPath id="bv"><path transform="matrix(1 0 0 -1 -3.489 456.159)" d="M514.008 339.957h57.066v57.066h-57.066z"/></clipPath><g clip-path="url(#bv)"><path d="M512.453 114.268h53.199V61.07h-53.2z" fill="#929292" fill-opacity=".506"/><path stroke-width="2.32032" fill="none" stroke="#5e5e5e" d="M565.652 61.07h-53.2v53.198h53.2z"/></g><clipPath id="bw"><path transform="matrix(1 0 0 -1 -3.489 456.159)" d="M460.81 286.758h57.065v57.066H460.81z"/></clipPath><g clip-path="url(#bw)"><path d="M459.254 167.467h53.199v-53.199h-53.2z" fill="#929292" fill-opacity=".506"/><path stroke-width="2.32032" fill="none" stroke="#5e5e5e" d="M512.453 114.268h-53.199v53.2h53.199z"/></g><clipPath id="bx"><path transform="matrix(1 0 0 -1 -3.489 456.159)" d="M460.676 393.111h57.208V421.2h-57.208z"/></clipPath><g clip-path="url(#bx)"><path d="m512.357 61.111-53.125-.116c1.254-13.698 12.85-24.17 26.698-24.1 13.788.068 25.247 10.572 26.427 24.216zm0 0" fill="#929292" fill-opacity=".506"/><path stroke-width="2.32032" fill="none" stroke="#5e5e5e" d="m512.357 61.111-53.125-.116c1.254-13.698 12.85-24.17 26.698-24.1 13.788.068 25.247 10.572 26.427 24.216zm0 0"/></g><clipPath id="by"><path transform="matrix(1 0 0 -1 -3.489 456.159)" d="M436.606 286.72v57.209h28.087V286.72z"/></clipPath><g clip-path="url(#by)"><clipPath id="bz"><path transform="matrix(1 0 0 -1 -3.489 456.159)" d="M0 9h792v594H0z"/></clipPath><g clip-path="url(#bz)"><path stroke-width="2.32032" fill="none" stroke="#5e5e5e" d="m459.267 167.4-.116-53.125c-13.698 1.253-24.17 12.85-24.1 26.698.068 13.787 10.572 25.247 24.216 26.426zm0 0"/></g></g><clipPath id="bA"><path transform="matrix(1 0 0 -1 -3.489 456.159)" d="M460.836 342.086v52.809h3.867v-52.81z"/></clipPath><g clip-path="url(#bA)"><clipPath id="bB"><path transform="matrix(1 0 0 -1 -3.489 456.159)" d="M0 9h792v594H0z"/></clipPath><g clip-path="url(#bB)"><path stroke-width="2.32032" fill="none" stroke="#5e5e5e" d="M459.28 113.3V62.038"/></g></g><clipPath id="bC"><path transform="matrix(1 0 0 -1 -3.489 456.159)" d="M674.741 288.887v52.809h3.867v-52.81z"/></clipPath><g clip-path="url(#bC)"><clipPath id="bD"><path transform="matrix(1 0 0 -1 -3.489 456.159)" d="M0 9h792v594H0z"/></clipPath><g clip-path="url(#bD)"><path stroke-width="2.32032" fill="none" stroke="#5e5e5e" d="M673.186 166.499v-51.262"/></g></g><clipPath id="bE"><path transform="matrix(1 0 0 -1 -3.489 456.159)" d="M568.958 393.111h57.208V421.2h-57.208z"/></clipPath><g clip-path="url(#bE)"><path d="m620.638 61.111-53.125-.116c1.254-13.698 12.85-24.17 26.699-24.1 13.787.068 25.247 10.572 26.426 24.216zm0 0" fill="#929292" fill-opacity=".506"/><path stroke-width="2.32032" fill="none" stroke="#5e5e5e" d="m620.638 61.111-53.125-.116c1.254-13.698 12.851-24.17 26.699-24.1 13.787.068 25.247 10.572 26.426 24.216zm0 0"/></g><clipPath id="bF"><path transform="matrix(1 0 0 -1 -3.489 456.159)" d="M621.516 339.957h57.066v57.066h-57.066z"/></clipPath><g clip-path="url(#bF)"><path d="M619.96 114.268h53.2V61.07h-53.2z" fill="#929292" fill-opacity=".506"/><path stroke-width="2.32032" fill="none" stroke="#5e5e5e" d="M673.16 61.07h-53.2v53.198h53.2z"/></g><clipPath id="bG"><path transform="matrix(1 0 0 -1 -3.489 456.159)" d="M702.668 339.92v57.208h-28.087V339.92z"/></clipPath><g clip-path="url(#bG)"><clipPath id="bH"><path transform="matrix(1 0 0 -1 -3.489 456.159)" d="M0 9h792v594H0z"/></clipPath><g clip-path="url(#bH)"><path stroke-width="2.32032" fill="none" stroke="#5e5e5e" d="m673.028 114.2.116-53.124c13.698 1.253 24.17 12.85 24.101 26.698-.069 13.787-10.573 25.247-24.217 26.427zm0 0"/></g></g><clipPath id="bI"><path transform="matrix(1 0 0 -1 -3.489 456.159)" d="M567.544 286.758h57.066v57.066h-57.066z"/></clipPath><g clip-path="url(#bI)"><path d="M565.988 167.467h53.199v-53.199h-53.199z" fill="#929292" fill-opacity=".506"/><path stroke-width="2.32032" fill="none" stroke="#5e5e5e" d="M619.187 114.268h-53.199v53.2h53.2z"/></g><clipPath id="bJ"><path transform="matrix(1 0 0 -1 -3.489 456.159)" d="M514.008 233.223h57.066v57.066h-57.066z"/></clipPath><g clip-path="url(#bJ)"><path d="M512.453 221.003h53.199v-53.2h-53.2z" fill="#929292" fill-opacity=".506"/><path stroke-width="2.32032" fill="none" stroke="#5e5e5e" d="M565.652 167.804h-53.2v53.199h53.2z"/></g><clipPath id="bK"><path transform="matrix(1 0 0 -1 -3.489 456.159)" d="M460.81 180.024h57.065v57.066H460.81z"/></clipPath><g clip-path="url(#bK)"><path d="M459.254 274.202h53.199v-53.2h-53.2z" fill="#929292" fill-opacity=".506"/><path stroke-width="2.32032" fill="none" stroke="#5e5e5e" d="M512.453 221.003h-53.199v53.199h53.199z"/></g><clipPath id="bL"><path transform="matrix(1 0 0 -1 -3.489 456.159)" d="M571.083 155.91h-57.208v28.087h57.208z"/></clipPath><g clip-path="url(#bL)"><clipPath id="bM"><path transform="matrix(1 0 0 -1 -3.489 456.159)" d="M0 9h792v594H0z"/></clipPath><g clip-path="url(#bM)"><path d="m565.556 274.099-53.125.116c1.253 13.698 12.85 24.17 26.698 24.1 13.787-.069 25.247-10.572 26.427-24.216zm0 0" fill="#929292" fill-opacity=".506"/><path stroke-width="2.32032" fill="none" stroke="#5e5e5e" d="m565.556 274.098-53.125.117c1.253 13.698 12.85 24.17 26.698 24.1 13.787-.069 25.247-10.572 26.427-24.217zm0 0"/></g></g><clipPath id="bN"><path transform="matrix(1 0 0 -1 -3.489 456.159)" d="M436.606 179.987v57.207h28.087v-57.207z"/></clipPath><g clip-path="url(#bN)"><clipPath id="bO"><path transform="matrix(1 0 0 -1 -3.489 456.159)" d="M0 9h792v594H0z"/></clipPath><g clip-path="url(#bO)"><path stroke-width="2.32032" fill="none" stroke="#5e5e5e" d="m459.267 274.134-.116-53.125c-13.698 1.254-24.17 12.85-24.1 26.698.068 13.788 10.572 25.247 24.216 26.427zm0 0"/></g></g><clipPath id="bP"><path transform="matrix(1 0 0 -1 -3.489 456.159)" d="M674.741 182.152v52.81h3.867v-52.81z"/></clipPath><g clip-path="url(#bP)"><clipPath id="bQ"><path transform="matrix(1 0 0 -1 -3.489 456.159)" d="M0 9h792v594H0z"/></clipPath><g clip-path="url(#bQ)"><path stroke-width="2.32032" fill="none" stroke="#5e5e5e" d="M673.186 273.233v-51.262"/></g></g><clipPath id="bR"><path transform="matrix(1 0 0 -1 -3.489 456.159)" d="M621.516 233.223h57.066v57.066h-57.066z"/></clipPath><g clip-path="url(#bR)"><path d="M619.96 221.003h53.2v-53.2h-53.2z" fill="#929292" fill-opacity=".506"/><path stroke-width="2.32032" fill="none" stroke="#5e5e5e" d="M673.16 167.804h-53.2v53.199h53.2z"/></g><clipPath id="bS"><path transform="matrix(1 0 0 -1 -3.489 456.159)" d="M702.668 233.185v57.208h-28.087v-57.208z"/></clipPath><g clip-path="url(#bS)"><clipPath id="bT"><path transform="matrix(1 0 0 -1 -3.489 456.159)" d="M0 9h792v594H0z"/></clipPath><g clip-path="url(#bT)"><path stroke-width="2.32032" fill="none" stroke="#5e5e5e" d="m673.028 220.935.116-53.125c13.698 1.254 24.17 12.85 24.101 26.699-.069 13.787-10.573 25.247-24.217 26.426zm0 0"/></g></g><clipPath id="bU"><path transform="matrix(1 0 0 -1 -3.489 456.159)" d="M567.544 180.024h57.066v57.066h-57.066z"/></clipPath><g clip-path="url(#bU)"><path d="M565.988 274.202h53.199v-53.2h-53.199z" fill="#929292" fill-opacity=".506"/><path stroke-width="2.32032" fill="none" stroke="#5e5e5e" d="M619.187 221.003h-53.199v53.199h53.2z"/></g><clipPath id="bV"><path transform="matrix(1 0 0 -1 -3.489 456.159)" d="M460.836 235.351v52.81h3.867v-52.81z"/></clipPath><g clip-path="url(#bV)"><clipPath id="bW"><path transform="matrix(1 0 0 -1 -3.489 456.159)" d="M0 9h792v594H0z"/></clipPath><g clip-path="url(#bW)"><path stroke-width="2.32032" fill="none" stroke="#5e5e5e" d="M459.28 220.034v-51.262"/></g></g><clipPath id="bX"><path transform="matrix(1 0 0 -1 -3.489 456.159)" d="M679.364 155.91h-57.207v28.087h57.207z"/></clipPath><g clip-path="url(#bX)"><clipPath id="bY"><path transform="matrix(1 0 0 -1 -3.489 456.159)" d="M0 9h792v594H0z"/></clipPath><g clip-path="url(#bY)"><path d="m673.837 274.099-53.125.116c1.254 13.698 12.85 24.17 26.698 24.1 13.788-.069 25.248-10.572 26.427-24.216zm0 0" fill="#929292" fill-opacity=".506"/><path stroke-width="2.32032" fill="none" stroke="#5e5e5e" d="m673.837 274.098-53.125.117c1.254 13.698 12.85 24.17 26.698 24.1 13.788-.069 25.248-10.572 26.427-24.217zm0 0"/></g></g><clipPath id="bZ"><path transform="matrix(1 0 0 -1 -3.489 456.159)" d="M453.621 385.664h18.563v18.563H453.62z"/></clipPath><g clip-path="url(#bZ)"><path d="M464.882 55.745a7.734 7.734 0 1 1-10.938 10.938 7.734 7.734 0 0 1 10.938-10.938zm0 0" fill="#fff"/><path stroke-width="1.54688" fill="none" stroke="#000" d="M464.882 55.745a7.734 7.734 0 1 1-10.938 10.938 7.734 7.734 0 0 1 10.938-10.938zm0 0"/></g><clipPath id="ca"><path transform="matrix(1 0 0 -1 -3.489 456.159)" d="M506.602 332.64h18.562v18.563h-18.562z"/></clipPath><g clip-path="url(#ca)"><path d="M517.863 108.769a7.734 7.734 0 1 1-10.938 10.938 7.734 7.734 0 0 1 10.938-10.938zm0 0" fill="#fff"/><path stroke-width="1.54688" fill="none" stroke="#000" d="M517.863 108.769a7.734 7.734 0 1 1-10.938 10.938 7.734 7.734 0 0 1 10.938-10.938zm0 0"/></g><clipPath id="cb"><path transform="matrix(1 0 0 -1 -3.489 456.159)" d="M559.969 279.273h18.562v18.562H559.97z"/></clipPath><g clip-path="url(#cb)"><path d="M571.23 162.136a7.734 7.734 0 1 1-10.938 10.938 7.734 7.734 0 0 1 10.938-10.938zm0 0" fill="#fff"/><path stroke-width="1.54688" fill="none" stroke="#000" d="M571.23 162.136a7.734 7.734 0 1 1-10.938 10.938 7.734 7.734 0 0 1 10.938-10.938zm0 0"/></g><clipPath id="cc"><path transform="matrix(1 0 0 -1 -3.489 456.159)" d="M559.969 386.007h18.562v18.563H559.97z"/></clipPath><g clip-path="url(#cc)"><path d="M571.23 55.401a7.734 7.734 0 1 1-10.938 10.938 7.734 7.734 0 0 1 10.938-10.938zm0 0" fill="#fff"/><path stroke-width="1.54688" fill="none" stroke="#000" d="M571.23 55.401a7.734 7.734 0 1 1-10.938 10.939A7.734 7.734 0 0 1 571.23 55.4zm0 0"/></g><clipPath id="cd"><path transform="matrix(1 0 0 -1 -3.489 456.159)" d="M453.234 279.273h18.563v18.562h-18.563z"/></clipPath><g clip-path="url(#cd)"><path d="M464.496 162.136a7.735 7.735 0 1 1-10.939 10.938 7.735 7.735 0 0 1 10.939-10.938zm0 0" fill="#fff"/><path stroke-width="1.54688" fill="none" stroke="#000" d="M464.496 162.136a7.734 7.734 0 1 1-10.938 10.938 7.734 7.734 0 0 1 10.938-10.938zm0 0"/></g><clipPath id="ce"><path transform="matrix(1 0 0 -1 -3.489 456.159)" d="M453.234 332.64h18.563v18.563h-18.563z"/></clipPath><g clip-path="url(#ce)"><path d="M464.496 108.769a7.734 7.734 0 1 1-10.939 10.938 7.734 7.734 0 0 1 10.939-10.938zm0 0" fill="#fff"/><path stroke-width="1.54688" fill="none" stroke="#000" d="M464.496 108.769a7.734 7.734 0 1 1-10.938 10.938 7.734 7.734 0 0 1 10.938-10.938zm0 0"/></g><clipPath id="cf"><path transform="matrix(1 0 0 -1 -3.489 456.159)" d="M559.969 332.64h18.562v18.563H559.97z"/></clipPath><g clip-path="url(#cf)"><path d="M571.23 108.769a7.734 7.734 0 1 1-10.938 10.938 7.734 7.734 0 0 1 10.938-10.938zm0 0" fill="#fff"/><path stroke-width="1.54688" fill="none" stroke="#000" d="M571.23 108.769a7.734 7.734 0 1 1-10.938 10.938 7.734 7.734 0 0 1 10.938-10.938zm0 0"/></g><clipPath id="cg"><path transform="matrix(1 0 0 -1 -3.489 456.159)" d="M506.602 386.007h18.562v18.563h-18.562z"/></clipPath><g clip-path="url(#cg)"><path d="M517.863 55.401a7.734 7.734 0 1 1-10.938 10.938 7.734 7.734 0 0 1 10.938-10.938zm0 0" fill="#fff"/><path stroke-width="1.54688" fill="none" stroke="#000" d="M517.863 55.401a7.734 7.734 0 1 1-10.938 10.939A7.734 7.734 0 0 1 517.863 55.4zm0 0"/></g><clipPath id="ch"><path transform="matrix(1 0 0 -1 -3.489 456.159)" d="M506.602 279.273h18.562v18.562h-18.562z"/></clipPath><g clip-path="url(#ch)"><path d="M517.863 162.136a7.734 7.734 0 1 1-10.938 10.938 7.734 7.734 0 0 1 10.938-10.938zm0 0" fill="#fff"/><path stroke-width="1.54688" fill="none" stroke="#000" d="M517.863 162.136a7.734 7.734 0 1 1-10.938 10.938 7.734 7.734 0 0 1 10.938-10.938zm0 0"/></g><clipPath id="ci"><path transform="matrix(1 0 0 -1 -3.489 456.159)" d="M613.336 279.273h18.562v18.562h-18.562z"/></clipPath><g clip-path="url(#ci)"><path d="M624.597 162.136a7.734 7.734 0 1 1-10.938 10.938 7.734 7.734 0 0 1 10.938-10.938zm0 0" fill="#fff"/><path stroke-width="1.54688" fill="none" stroke="#000" d="M624.597 162.136a7.734 7.734 0 1 1-10.938 10.938 7.734 7.734 0 0 1 10.938-10.938zm0 0"/></g><clipPath id="cj"><path transform="matrix(1 0 0 -1 -3.489 456.159)" d="M613.336 386.007h18.562v18.563h-18.562z"/></clipPath><g clip-path="url(#cj)"><path d="M624.597 55.401A7.734 7.734 0 1 1 613.66 66.34a7.734 7.734 0 0 1 10.937-10.938zm0 0" fill="#fff"/><path stroke-width="1.54688" fill="none" stroke="#000" d="M624.597 55.401A7.734 7.734 0 1 1 613.66 66.34 7.734 7.734 0 0 1 624.597 55.4zm0 0"/></g><clipPath id="ck"><path transform="matrix(1 0 0 -1 -3.489 456.159)" d="M613.336 332.64h18.562v18.563h-18.562z"/></clipPath><g clip-path="url(#ck)"><path d="M624.597 108.769a7.734 7.734 0 1 1-10.937 10.938 7.734 7.734 0 0 1 10.937-10.938zm0 0" fill="#fff"/><path stroke-width="1.54688" fill="none" stroke="#000" d="M624.597 108.769a7.734 7.734 0 1 1-10.938 10.938 7.734 7.734 0 0 1 10.938-10.938zm0 0"/></g><clipPath id="cl"><path transform="matrix(1 0 0 -1 -3.489 456.159)" d="M667.477 279.273h18.562v18.562h-18.562z"/></clipPath><g clip-path="url(#cl)"><path d="M678.738 162.136a7.734 7.734 0 1 1-10.938 10.938 7.734 7.734 0 0 1 10.938-10.938zm0 0" fill="#fff"/><path stroke-width="1.54688" fill="none" stroke="#000" d="M678.738 162.136a7.734 7.734 0 1 1-10.938 10.938 7.734 7.734 0 0 1 10.938-10.938zm0 0"/></g><clipPath id="cm"><path transform="matrix(1 0 0 -1 -3.489 456.159)" d="M667.477 386.007h18.562v18.563h-18.562z"/></clipPath><g clip-path="url(#cm)"><path d="M678.738 55.401A7.734 7.734 0 1 1 667.8 66.34a7.734 7.734 0 0 1 10.938-10.938zm0 0" fill="#fff"/><path stroke-width="1.54688" fill="none" stroke="#000" d="M678.738 55.401A7.734 7.734 0 1 1 667.8 66.34 7.734 7.734 0 0 1 678.738 55.4zm0 0"/></g><clipPath id="cn"><path transform="matrix(1 0 0 -1 -3.489 456.159)" d="M667.477 332.64h18.562v18.563h-18.562z"/></clipPath><g clip-path="url(#cn)"><path d="M678.738 108.769a7.734 7.734 0 1 1-10.938 10.938 7.734 7.734 0 0 1 10.938-10.938zm0 0" fill="#fff"/><path stroke-width="1.54688" fill="none" stroke="#000" d="M678.738 108.769a7.734 7.734 0 1 1-10.938 10.938 7.734 7.734 0 0 1 10.938-10.938zm0 0"/></g><clipPath id="co"><path transform="matrix(1 0 0 -1 -3.489 456.159)" d="M506.602 225.906h18.562v18.562h-18.562z"/></clipPath><g clip-path="url(#co)"><path d="M517.863 215.503a7.734 7.734 0 1 1-10.938 10.938 7.734 7.734 0 0 1 10.938-10.938zm0 0" fill="#fff"/><path stroke-width="1.54688" fill="none" stroke="#000" d="M517.863 215.503a7.734 7.734 0 1 1-10.938 10.938 7.734 7.734 0 0 1 10.938-10.938zm0 0"/></g><clipPath id="cp"><path transform="matrix(1 0 0 -1 -3.489 456.159)" d="M559.969 172.538h18.562v18.563H559.97z"/></clipPath><g clip-path="url(#cp)"><path d="M571.23 268.87a7.734 7.734 0 1 1-10.938 10.938 7.734 7.734 0 0 1 10.938-10.938zm0 0" fill="#fff"/><path stroke-width="1.54688" fill="none" stroke="#000" d="M571.23 268.87a7.734 7.734 0 1 1-10.938 10.938 7.734 7.734 0 0 1 10.938-10.938zm0 0"/></g><clipPath id="cq"><path transform="matrix(1 0 0 -1 -3.489 456.159)" d="M453.234 172.538h18.563v18.563h-18.563z"/></clipPath><g clip-path="url(#cq)"><path d="M464.496 268.87a7.735 7.735 0 1 1-10.939 10.938 7.735 7.735 0 0 1 10.939-10.938zm0 0" fill="#fff"/><path stroke-width="1.54688" fill="none" stroke="#000" d="M464.496 268.87a7.734 7.734 0 1 1-10.938 10.938 7.734 7.734 0 0 1 10.938-10.938zm0 0"/></g><clipPath id="cr"><path transform="matrix(1 0 0 -1 -3.489 456.159)" d="M453.234 225.906h18.563v18.562h-18.563z"/></clipPath><g clip-path="url(#cr)"><path d="M464.496 215.503a7.735 7.735 0 1 1-10.939 10.938 7.735 7.735 0 0 1 10.939-10.938zm0 0" fill="#fff"/><path stroke-width="1.54688" fill="none" stroke="#000" d="M464.496 215.503a7.734 7.734 0 1 1-10.938 10.938 7.734 7.734 0 0 1 10.938-10.938zm0 0"/></g><clipPath id="cs"><path transform="matrix(1 0 0 -1 -3.489 456.159)" d="M559.969 225.906h18.562v18.562H559.97z"/></clipPath><g clip-path="url(#cs)"><path d="M571.23 215.503a7.734 7.734 0 1 1-10.938 10.938 7.734 7.734 0 0 1 10.938-10.938zm0 0" fill="#fff"/><path stroke-width="1.54688" fill="none" stroke="#000" d="M571.23 215.503a7.734 7.734 0 1 1-10.938 10.938 7.734 7.734 0 0 1 10.938-10.938zm0 0"/></g><clipPath id="ct"><path transform="matrix(1 0 0 -1 -3.489 456.159)" d="M506.602 172.538h18.562v18.563h-18.562z"/></clipPath><g clip-path="url(#ct)"><path d="M517.863 268.87a7.734 7.734 0 1 1-10.938 10.938 7.734 7.734 0 0 1 10.938-10.938zm0 0" fill="#fff"/><path stroke-width="1.54688" fill="none" stroke="#000" d="M517.863 268.87a7.734 7.734 0 1 1-10.938 10.938 7.734 7.734 0 0 1 10.938-10.938zm0 0"/></g><clipPath id="cu"><path transform="matrix(1 0 0 -1 -3.489 456.159)" d="M613.336 172.538h18.562v18.563h-18.562z"/></clipPath><g clip-path="url(#cu)"><path d="M624.597 268.87a7.734 7.734 0 1 1-10.938 10.938 7.734 7.734 0 0 1 10.938-10.938zm0 0" fill="#fff"/><path stroke-width="1.54688" fill="none" stroke="#000" d="M624.597 268.87a7.734 7.734 0 1 1-10.938 10.938 7.734 7.734 0 0 1 10.938-10.938zm0 0"/></g><clipPath id="cv"><path transform="matrix(1 0 0 -1 -3.489 456.159)" d="M613.336 225.906h18.562v18.562h-18.562z"/></clipPath><g clip-path="url(#cv)"><path d="M624.597 215.503a7.734 7.734 0 1 1-10.938 10.938 7.734 7.734 0 0 1 10.938-10.938zm0 0" fill="#fff"/><path stroke-width="1.54688" fill="none" stroke="#000" d="M624.597 215.503a7.734 7.734 0 1 1-10.938 10.938 7.734 7.734 0 0 1 10.938-10.938zm0 0"/></g><clipPath id="cw"><path transform="matrix(1 0 0 -1 -3.489 456.159)" d="M667.477 172.538h18.562v18.563h-18.562z"/></clipPath><g clip-path="url(#cw)"><path d="M678.738 268.87a7.734 7.734 0 1 1-10.938 10.938 7.734 7.734 0 0 1 10.938-10.938zm0 0" fill="#fff"/><path stroke-width="1.54688" fill="none" stroke="#000" d="M678.738 268.87a7.734 7.734 0 1 1-10.938 10.938 7.734 7.734 0 0 1 10.938-10.938zm0 0"/></g><clipPath id="cx"><path transform="matrix(1 0 0 -1 -3.489 456.159)" d="M667.477 225.906h18.562v18.562h-18.562z"/></clipPath><g clip-path="url(#cx)"><path d="M678.738 215.503a7.734 7.734 0 1 1-10.938 10.938 7.734 7.734 0 0 1 10.938-10.938zm0 0" fill="#fff"/><path stroke-width="1.54688" fill="none" stroke="#000" d="M678.738 215.503a7.734 7.734 0 1 1-10.938 10.938 7.734 7.734 0 0 1 10.938-10.938zm0 0"/></g><clipPath id="cy"><path transform="matrix(1 0 0 -1 -3.489 456.159)" d="M0 9h792v594H0z"/></clipPath><g clip-path="url(#cy)"><path stroke-width="1.54688" fill="none" stroke="#000" d="M15.506-2.982h35.4"/></g><path stroke-width="1.54688" fill="none" stroke="#000" d="M15.506 338.191h35.4" data-name="P"/></g></svg>