<svg xmlns="http://www.w3.org/2000/svg" width="457.681" height="449.611" viewBox="0 0 343.261 337.208"><clipPath id="a"><path transform="matrix(1 0 0 -1 -85.599 456.365)" d="M0 9h792v594H0z"/></clipPath><g clip-path="url(#a)"><path d="M-85.599-146.635h792v594h-792z" fill="#fff"/><clipPath id="b"><path transform="matrix(1 0 0 -1 -85.599 456.365)" d="M90.105 384.074h68.836v68.836H90.105z"/></clipPath><g clip-path="url(#b)"><path d="M21.84 5.389h34.17c4.518 0 7.23 0 9.037.755a9.381 9.381 0 0 1 5.607 5.606c.755 1.808.755 4.52.755 9.038v34.17c0 4.52 0 7.23-.755 9.038a9.381 9.381 0 0 1-5.607 5.607c-1.807.755-4.519.755-9.038.755H21.84c-4.519 0-7.23 0-9.037-.755a9.381 9.381 0 0 1-5.607-5.607c-.755-1.807-.755-4.519-.755-9.038v-34.17c0-4.519 0-7.23.755-9.038a9.381 9.381 0 0 1 5.607-5.606c1.807-.755 4.518-.755 9.037-.755zm0 0" fill="#c8c8c8" fill-opacity=".5"/><path stroke-width="2.32032" stroke-dasharray="4.64064,4.64064" fill="none" stroke="#929292" d="M21.84 5.389h34.17c4.518 0 7.23 0 9.037.755a9.381 9.381 0 0 1 5.607 5.606c.755 1.808.755 4.52.755 9.038v34.17c0 4.52 0 7.23-.755 9.038a9.381 9.381 0 0 1-5.607 5.607c-1.807.755-4.519.755-9.038.755H21.84c-4.519 0-7.23 0-9.037-.755a9.381 9.381 0 0 1-5.607-5.607c-.755-1.807-.755-4.519-.755-9.038v-34.17c0-4.519 0-7.23.755-9.038a9.381 9.381 0 0 1 5.607-5.606c1.807-.755 4.518-.755 9.037-.755zm0 0"/></g><clipPath id="c"><path transform="matrix(1 0 0 -1 -85.599 456.365)" d="M220.043 384.074h68.836v68.836h-68.836z"/></clipPath><g clip-path="url(#c)"><path d="M151.777 5.389h34.17c4.519 0 7.23 0 9.038.755a9.381 9.381 0 0 1 5.607 5.606c.754 1.808.754 4.52.754 9.038v34.17c0 4.52 0 7.23-.754 9.038a9.381 9.381 0 0 1-5.607 5.607c-1.808.755-4.52.755-9.038.755h-34.17c-4.519 0-7.23 0-9.038-.755a9.381 9.381 0 0 1-5.607-5.607c-.754-1.807-.754-4.519-.754-9.038v-34.17c0-4.519 0-7.23.754-9.038a9.381 9.381 0 0 1 5.607-5.606c1.808-.755 4.519-.755 9.038-.755zm0 0" fill="#c8c8c8" fill-opacity=".5"/><path stroke-width="2.32032" stroke-dasharray="4.64064,4.64064" fill="none" stroke="#929292" d="M151.777 5.389h34.17c4.519 0 7.23 0 9.038.755a9.381 9.381 0 0 1 5.607 5.606c.754 1.808.754 4.52.754 9.038v34.17c0 4.52 0 7.23-.754 9.038a9.381 9.381 0 0 1-5.607 5.607c-1.808.755-4.52.755-9.038.755h-34.17c-4.519 0-7.23 0-9.038-.755a9.381 9.381 0 0 1-5.607-5.607c-.754-1.807-.754-4.519-.754-9.038v-34.17c0-4.519 0-7.23.754-9.038a9.381 9.381 0 0 1 5.607-5.606c1.808-.755 4.519-.755 9.038-.755zm0 0"/></g><clipPath id="d"><path transform="matrix(1 0 0 -1 -85.599 456.365)" d="M90.105 254.136h68.836v68.836H90.105z"/></clipPath><g clip-path="url(#d)"><path d="M21.84 135.327h34.17c4.518 0 7.23 0 9.037.754a9.381 9.381 0 0 1 5.607 5.607c.755 1.808.755 4.519.755 9.038v34.17c0 4.519 0 7.23-.755 9.038a9.381 9.381 0 0 1-5.607 5.607c-1.807.754-4.519.754-9.038.754H21.84c-4.519 0-7.23 0-9.037-.754a9.381 9.381 0 0 1-5.607-5.607c-.755-1.808-.755-4.52-.755-9.038v-34.17c0-4.52 0-7.23.755-9.038a9.381 9.381 0 0 1 5.607-5.607c1.807-.754 4.518-.754 9.037-.754zm0 0" fill="#c8c8c8" fill-opacity=".5"/><path stroke-width="2.32032" stroke-dasharray="4.64064,4.64064" fill="none" stroke="#929292" d="M21.84 135.326h34.17c4.518 0 7.23 0 9.037.755a9.381 9.381 0 0 1 5.607 5.607c.755 1.808.755 4.519.755 9.038v34.17c0 4.519 0 7.23-.755 9.038a9.381 9.381 0 0 1-5.607 5.607c-1.807.754-4.519.754-9.038.754H21.84c-4.519 0-7.23 0-9.037-.754a9.381 9.381 0 0 1-5.607-5.607c-.755-1.808-.755-4.52-.755-9.038v-34.17c0-4.52 0-7.23.755-9.038a9.381 9.381 0 0 1 5.607-5.607c1.807-.755 4.518-.755 9.037-.755zm0 0"/></g><clipPath id="e"><path transform="matrix(1 0 0 -1 -85.599 456.365)" d="M220.043 254.136h68.836v68.836h-68.836z"/></clipPath><g clip-path="url(#e)"><path d="M151.777 135.327h34.17c4.519 0 7.23 0 9.038.754a9.381 9.381 0 0 1 5.607 5.607c.754 1.808.754 4.519.754 9.038v34.17c0 4.519 0 7.23-.754 9.038a9.381 9.381 0 0 1-5.607 5.607c-1.808.754-4.52.754-9.038.754h-34.17c-4.519 0-7.23 0-9.038-.754a9.381 9.381 0 0 1-5.607-5.607c-.754-1.808-.754-4.52-.754-9.038v-34.17c0-4.52 0-7.23.754-9.038a9.381 9.381 0 0 1 5.607-5.607c1.808-.754 4.519-.754 9.038-.754zm0 0" fill="#c8c8c8" fill-opacity=".5"/><path stroke-width="2.32032" stroke-dasharray="4.64064,4.64064" fill="none" stroke="#929292" d="M151.777 135.326h34.17c4.519 0 7.23 0 9.038.755a9.381 9.381 0 0 1 5.607 5.607c.754 1.808.754 4.519.754 9.038v34.17c0 4.519 0 7.23-.754 9.038a9.381 9.381 0 0 1-5.607 5.607c-1.808.754-4.52.754-9.038.754h-34.17c-4.519 0-7.23 0-9.038-.754a9.381 9.381 0 0 1-5.607-5.607c-.754-1.808-.754-4.52-.754-9.038v-34.17c0-4.52 0-7.23.754-9.038a9.381 9.381 0 0 1 5.607-5.607c1.808-.755 4.519-.755 9.038-.755zm0 0"/></g><clipPath id="f"><path transform="matrix(1 0 0 -1 -85.599 456.365)" d="M349.98 384.074h68.836v68.836h-68.835z"/></clipPath><g clip-path="url(#f)"><path d="M281.714 5.389h34.17c4.52 0 7.23 0 9.038.755a9.381 9.381 0 0 1 5.607 5.606c.755 1.808.755 4.52.755 9.038v34.17c0 4.52 0 7.23-.755 9.038a9.381 9.381 0 0 1-5.607 5.607c-1.807.755-4.519.755-9.038.755h-34.17c-4.518 0-7.23 0-9.037-.755a9.381 9.381 0 0 1-5.607-5.607c-.755-1.807-.755-4.519-.755-9.038v-34.17c0-4.519 0-7.23.755-9.038a9.381 9.381 0 0 1 5.607-5.606c1.807-.755 4.519-.755 9.037-.755zm0 0" fill="#c8c8c8" fill-opacity=".5"/><path stroke-width="2.32032" stroke-dasharray="4.64064,4.64064" fill="none" stroke="#929292" d="M281.714 5.389h34.17c4.52 0 7.23 0 9.038.755a9.381 9.381 0 0 1 5.607 5.606c.755 1.808.755 4.52.755 9.038v34.17c0 4.52 0 7.23-.755 9.038a9.381 9.381 0 0 1-5.607 5.607c-1.807.755-4.519.755-9.037.755h-34.17c-4.52 0-7.23 0-9.038-.755a9.381 9.381 0 0 1-5.607-5.607c-.755-1.807-.755-4.519-.755-9.038v-34.17c0-4.519 0-7.23.755-9.038a9.381 9.381 0 0 1 5.607-5.606c1.807-.755 4.519-.755 9.037-.755zm0 0"/></g><clipPath id="g"><path transform="matrix(1 0 0 -1 -85.599 456.365)" d="M349.98 254.136h68.836v68.836h-68.835z"/></clipPath><g clip-path="url(#g)"><path d="M281.714 135.327h34.17c4.52 0 7.23 0 9.038.754a9.381 9.381 0 0 1 5.607 5.607c.755 1.808.755 4.519.755 9.038v34.17c0 4.519 0 7.23-.755 9.038a9.381 9.381 0 0 1-5.607 5.607c-1.807.754-4.519.754-9.038.754h-34.17c-4.518 0-7.23 0-9.037-.754a9.381 9.381 0 0 1-5.607-5.607c-.755-1.808-.755-4.52-.755-9.038v-34.17c0-4.52 0-7.23.755-9.038a9.381 9.381 0 0 1 5.607-5.607c1.807-.754 4.519-.754 9.037-.754zm0 0" fill="#c8c8c8" fill-opacity=".5"/><path stroke-width="2.32032" stroke-dasharray="4.64064,4.64064" fill="none" stroke="#929292" d="M281.714 135.326h34.17c4.52 0 7.23 0 9.038.755a9.381 9.381 0 0 1 5.607 5.607c.755 1.808.755 4.519.755 9.038v34.17c0 4.519 0 7.23-.755 9.038a9.381 9.381 0 0 1-5.607 5.607c-1.807.754-4.519.754-9.037.754h-34.17c-4.52 0-7.23 0-9.038-.754a9.381 9.381 0 0 1-5.607-5.607c-.755-1.808-.755-4.52-.755-9.038v-34.17c0-4.52 0-7.23.755-9.038a9.381 9.381 0 0 1 5.607-5.607c1.807-.755 4.519-.755 9.037-.755zm0 0"/></g><clipPath id="h"><path transform="matrix(1 0 0 -1 -85.599 456.365)" d="M90.105 124.199h68.836v68.836H90.105z"/></clipPath><g clip-path="url(#h)"><path d="M21.84 265.264h34.17c4.518 0 7.23 0 9.037.755a9.381 9.381 0 0 1 5.607 5.606c.755 1.808.755 4.52.755 9.038v34.17c0 4.52 0 7.23-.755 9.038a9.381 9.381 0 0 1-5.607 5.607c-1.807.755-4.519.755-9.038.755H21.84c-4.519 0-7.23 0-9.037-.755a9.381 9.381 0 0 1-5.607-5.607c-.755-1.807-.755-4.519-.755-9.038v-34.17c0-4.519 0-7.23.755-9.038a9.381 9.381 0 0 1 5.607-5.606c1.807-.755 4.518-.755 9.037-.755zm0 0" fill="#c8c8c8" fill-opacity=".5"/><path stroke-width="2.32032" stroke-dasharray="4.64064,4.64064" fill="none" stroke="#929292" d="M21.84 265.264h34.17c4.518 0 7.23 0 9.037.755a9.381 9.381 0 0 1 5.607 5.606c.755 1.808.755 4.52.755 9.038v34.17c0 4.52 0 7.23-.755 9.038a9.381 9.381 0 0 1-5.607 5.607c-1.807.755-4.519.755-9.038.755H21.84c-4.519 0-7.23 0-9.037-.755a9.381 9.381 0 0 1-5.607-5.607c-.755-1.807-.755-4.519-.755-9.038v-34.17c0-4.519 0-7.23.755-9.038a9.381 9.381 0 0 1 5.607-5.606c1.807-.755 4.518-.755 9.037-.755zm0 0"/></g><clipPath id="i"><path transform="matrix(1 0 0 -1 -85.599 456.365)" d="M220.043 124.199h68.836v68.836h-68.836z"/></clipPath><g clip-path="url(#i)"><path d="M151.777 265.264h34.17c4.519 0 7.23 0 9.038.755a9.381 9.381 0 0 1 5.607 5.606c.754 1.808.754 4.52.754 9.038v34.17c0 4.52 0 7.23-.754 9.038a9.381 9.381 0 0 1-5.607 5.607c-1.808.755-4.52.755-9.038.755h-34.17c-4.519 0-7.23 0-9.038-.755a9.381 9.381 0 0 1-5.607-5.607c-.754-1.807-.754-4.519-.754-9.038v-34.17c0-4.519 0-7.23.754-9.038a9.381 9.381 0 0 1 5.607-5.606c1.808-.755 4.519-.755 9.038-.755zm0 0" fill="#c8c8c8" fill-opacity=".5"/><path stroke-width="2.32032" stroke-dasharray="4.64064,4.64064" fill="none" stroke="#929292" d="M151.777 265.264h34.17c4.519 0 7.23 0 9.038.755a9.381 9.381 0 0 1 5.607 5.606c.754 1.808.754 4.52.754 9.038v34.17c0 4.52 0 7.23-.754 9.038a9.381 9.381 0 0 1-5.607 5.607c-1.808.755-4.52.755-9.038.755h-34.17c-4.519 0-7.23 0-9.038-.755a9.381 9.381 0 0 1-5.607-5.607c-.754-1.807-.754-4.519-.754-9.038v-34.17c0-4.519 0-7.23.754-9.038a9.381 9.381 0 0 1 5.607-5.606c1.808-.755 4.519-.755 9.038-.755zm0 0"/></g><clipPath id="j"><path transform="matrix(1 0 0 -1 -85.599 456.365)" d="M349.98 124.199h68.836v68.836h-68.835z"/></clipPath><g clip-path="url(#j)"><path d="M281.714 265.264h34.17c4.52 0 7.23 0 9.038.755a9.381 9.381 0 0 1 5.607 5.606c.755 1.808.755 4.52.755 9.038v34.17c0 4.52 0 7.23-.755 9.038a9.381 9.381 0 0 1-5.607 5.607c-1.807.755-4.519.755-9.038.755h-34.17c-4.518 0-7.23 0-9.037-.755a9.381 9.381 0 0 1-5.607-5.607c-.755-1.807-.755-4.519-.755-9.038v-34.17c0-4.519 0-7.23.755-9.038a9.381 9.381 0 0 1 5.607-5.606c1.807-.755 4.519-.755 9.037-.755zm0 0" fill="#c8c8c8" fill-opacity=".5"/><path stroke-width="2.32032" stroke-dasharray="4.64064,4.64064" fill="none" stroke="#929292" d="M281.714 265.264h34.17c4.52 0 7.23 0 9.038.755a9.381 9.381 0 0 1 5.607 5.606c.755 1.808.755 4.52.755 9.038v34.17c0 4.52 0 7.23-.755 9.038a9.381 9.381 0 0 1-5.607 5.607c-1.807.755-4.519.755-9.037.755h-34.17c-4.52 0-7.23 0-9.038-.755a9.381 9.381 0 0 1-5.607-5.607c-.755-1.807-.755-4.519-.755-9.038v-34.17c0-4.519 0-7.23.755-9.038a9.381 9.381 0 0 1 5.607-5.606c1.807-.755 4.519-.755 9.037-.755zm0 0"/></g></g></svg>